<!-- Generator: Adobe Illustrator 24.1.0, SVG Export Plug-In . SVG Version: 6.00 Build 0)  -->
<svg version="1.1" id="Layer_1" xmlns="http://www.w3.org/2000/svg" xmlns:xlink="http://www.w3.org/1999/xlink" x="0px" y="0px"
     viewBox="0 0 1200 1200" style="enable-background:new 0 0 1200 1200;" xml:space="preserve">
<style type="text/css">
	.st0{fill:#2B31BA;}
	.st1{fill:#110580;}
	.st2{fill:#FCB58A;}
	.st3{fill:#F8D7BC;}
	.st4{fill:#4E53BA;}
	.st5{fill:#E3996D;}
	.st6{fill:#FF8A91;}
	.st7{fill:#F8ECE2;}
	.st8{fill:#FF5856;}
	.st9{fill:#EBD0BE;}
	.st10{fill:#E0C1A6;}
	.st11{fill:#F8D0B3;}
	.st12{fill:#FF7A82;}
	.st13{fill:#F0A173;}
	.st14{fill:#001D80;}
	.st15{fill:#FFFFFF;}
	.st16{fill:#E0E0E0;}
	.st17{fill:#FFADB2;}
	.st18{fill:#AB534D;}
	.st19{fill:#F8E7D8;}
	.st20{fill:#C7645D;}
	.st21{fill:#DEBCA7;}
	.st22{fill:#F3E9E1;}
	.st23{fill:#BFA990;}
	.st24{fill:#D4BFA9;}
	.st25{fill:#EBDBCD;}
	.st26{fill:#C5C6E3;}
</style>
    <g>
	<polygon class="st0" points="289,368.4 697.8,166.9 794.2,532 330,515.2 	"/>
        <path class="st1" d="M575.9,267l-15.8,117.5c-0.2,1.5,0.6,3,2,3.6c4.6,2,15.3,6.2,27.3,6.8c9.7,0.5,26.9-2.1,36.8-5.1
		c1.8-0.6,3-2.6,2.3-4.4c0,0,0,0,0,0l-46-119.3C581.3,262.8,576.4,263.4,575.9,267z"/>
        <circle class="st2" cx="628.8" cy="299.9" r="69"/>
        <rect x="431" y="831.1" class="st3" width="94.4" height="71.4"/>
        <polygon class="st4" points="421.7,825.6 421.7,831.1 525.5,831.1 525.5,902.5 421.7,902.5 421.7,907.9 820.9,907.9 820.9,825.6
		"/>
        <path class="st5" d="M382.1,783.4c2.3,14.6,5.2,29.1,8.7,43.5c6.1,25.4,45.2,14.6,39.1-10.8c-3.5-14.4-6.3-28.9-8.7-43.5
		c-1.7-10.8-15.2-16.8-24.9-14.2C384.7,761.7,380.4,772.6,382.1,783.4L382.1,783.4z"/>
        <polygon class="st0" points="998.8,635.1 928.4,675.9 927.1,592.6 	"/>
        <path class="st6" d="M616.4,568.3c-0.4-0.2-0.8-0.4-1.2-0.4c-6.7-1.1-58.3-10-111.9-20.3c-23.9-4.6-93.5-24.3-129.9-10.1
		s-43.6,35.5-46.8,50.5c-2.8,13.5,2.1,59.4,14,106c10.6,41.7,36.5,94.5,41.9,105.2c0.6,1.3,1.9,2.1,3.3,2.2c3.3,0.2,10,0.1,18.6-2.5
		c7.6-2.3,15.7-6.6,19.4-8.6c1.2-0.7,2-2,2-3.4c0.2-11.6,1.1-65.8-0.3-103.9c-1.4-37-14.1-49.2-14.1-49.2s43.8,48.6,88.5,61.9
		c35.4,10.5,109.6,33.8,140.3,32.9c35.6-1,61.3-16,72.8-34.1c21.3-33.5,8.1-83.1,4.7-94c-0.4-1.4-1.5-2.4-2.9-2.7
		c-11.7-2.8-67.3-16.1-81.7-22.1C621.3,570.7,617.6,568.9,616.4,568.3z"/>
        <path class="st2" d="M716,552.7c0,0-0.8,9.2,0.1,22.3c0.9,13.2,2.9,23.3,2.9,23.3s-53.3-8.6-73.5-16.4C620,572,615.9,568,615.9,568
		s4.8-10.7,6.5-18.4c1.3-5.7,2-21.4,2-21.4s27.6,13.1,46.9,17.7C690.6,550.5,716,552.7,716,552.7z"/>
        <circle class="st4" cx="252.6" cy="205" r="51.4"/>
        <path class="st7" d="M655.1,1030.5H339.3V915.1h315.7c15.7,0,28.5,12.7,28.5,28.5v58.5C683.6,1017.7,670.8,1030.5,655.1,1030.5z"/>
        <path class="st8" d="M842.2,907.9H325.6c-2,0-3.6,1.6-3.6,3.6l0,0c0,2,1.6,3.6,3.6,3.6H389l0,0h236.8c31.9,0,57.7,25.8,57.7,57.7v0
		c0,31.9-25.8,57.7-57.7,57.7H333.3l0,0h-7.8c-2,0-3.6,1.6-3.6,3.6l0,0c0,2,1.6,3.6,3.6,3.6h516.7c31.9,0,57.7-25.8,57.7-57.7v-14.3
		C899.9,933.7,874.1,907.9,842.2,907.9z"/>
        <path class="st9" d="M636.9,940.1H339.3v-4h297.6c1.1,0,2,0.9,2,2l0,0C638.9,939.2,638,940.1,636.9,940.1z"/>
        <path class="st10" d="M499.6,885.5H431v-4h68.6c1.1,0,2,0.9,2,2l0,0C501.6,884.6,500.7,885.5,499.6,885.5z"/>
        <path class="st10" d="M483.4,863H431v-4h52.3c1.1,0,2,0.9,2,2l0,0C485.4,862.1,484.5,863,483.4,863z"/>
        <path class="st9" d="M658.5,985H339.3v-4h319.2c1.1,0,2,0.9,2,2l0,0C660.5,984.1,659.6,985,658.5,985z"/>
        <path class="st9" d="M619.2,1009.9H339.3v-4h279.9c1.1,0,2,0.9,2,2l0,0C621.2,1009,620.3,1009.9,619.2,1009.9z"/>
        <path class="st9" d="M648.9,963H339.3v-4h309.6c1.1,0,2,0.9,2,2l0,0C650.9,962.1,650.1,963,648.9,963z"/>
        <path class="st11" d="M615,819H493.6v-42.8H615c3.3,0,6,2.7,6,6V813C621,816.4,618.3,819,615,819z"/>
        <path class="st12" d="M833.8,769.7H592.6H486.8h-3.2c-1.8,0-3.3,1.5-3.3,3.3c0,1.8,1.5,3.3,3.3,3.3h10l0,0H609c6.6,0,12,5.4,12,12
		V807c0,6.6-5.4,12-12,12h-26.4v0h-98.3c-1.8,0-3.3,1.5-3.3,3.3c0,1.8,1.5,3.3,3.3,3.3h2.5h106.6h240.4c6.6,0,12-5.4,12-12v-32
		C845.8,775,840.4,769.7,833.8,769.7z"/>
        <path class="st13" d="M415.9,507.6c35.8-16.1,77.2,5.5,112.9,11.6c35,6,73.3,1.3,97.6-27.3c5.5-6.5,6.4-16,0-22.4
		c-5.7-5.7-16.9-6.6-22.4,0c-22.9,26.9-58.4,22-89.1,14.2c-38.5-9.9-76.7-20.6-114.9-3.5c-7.8,3.5-9.7,14.9-5.7,21.7
		C398.9,510,408.1,511.1,415.9,507.6L415.9,507.6z"/>
        <path class="st2" d="M427.4,517.5c38.9-12.7,77.3,12.4,113.7,23.1c34.8,10.2,73.5,8.6,100.7-17.8c14.7-14.2-7.8-36.7-22.4-22.4
		c-24.5,23.8-60.4,13.8-88.6,3.3c-35.9-13.3-73.2-29.4-111.8-16.8C399.7,493.2,408,523.9,427.4,517.5L427.4,517.5z"/>
        <polygon class="st14" points="592.3,259.5 592.3,259.5 592.3,259.5 	"/>
        <path class="st15" d="M672.2,397.7c3.4,1,33.7,13.2,45.1,53.8c9.5,33.5,17.4,83.2,19.9,99.5c0.5,3.1-1.6,6.1-4.7,6.7
		c-9.1,1.8-28.7,4.6-53.4,2.4c-34.4-3.1-56.3-12.4-56.3-12.4l0.9-7.8l-3.1,1.4c-2.4,1.1-5.3,0.4-6.8-1.7l-22.4-29.8
		c-1.5-2-0.8-4.8,1.3-5.9l0.3-0.2l-18.1-21.8c-1.7-2.1-1.6-5.1,0.4-7c6.4-6.2,20.3-20.2,30.2-33.7c7.2-9.8,16.7-27.6,22.6-34.5
		C639.9,392.8,663.3,395.1,672.2,397.7z"/>
        <polygon class="st2" points="673.3,410.4 651.2,353.7 609.2,353.4 631.2,410.1 	"/>
        <path class="st2" d="M634.8,422.8c6.3,1.5,14.8-4.5,21.9-7.7c7.6-3.4,16.5-4.8,16.5-4.8l-42-0.3
		C631.2,410.1,628.2,421.3,634.8,422.8z"/>
        <path class="st16" d="M620.1,468.7c0,0-4.2,11.3-8.4,17.6c-4.2,6.3-18.7,17.4-18.7,17.4l-5.4-6.5c0,0,10.1-5.1,17.2-12
		C610,480.3,620.1,468.7,620.1,468.7z"/>
        <path class="st16" d="M623.7,539.9c0,0,13-7.7,18.8-14c5.8-6.3,13.9-18.9,13.9-18.9s-8.9,19.3-13.3,27.6
		c-6.1,11.4-10.8,16.5-10.8,16.5l-9.4-3.3c0,0,0.1-1.9,0.4-3.7C623.5,542.2,623.7,539.9,623.7,539.9z"/>
        <path class="st13" d="M384.9,503.3c9.1-5.7,18.6-10.2,28.8-13.4c8.5-2.6,4.9-16.2-3.7-13.6c-11.3,3.5-22.1,8.4-32.1,14.8
		C370.4,495.9,377.3,508.1,384.9,503.3L384.9,503.3z"/>
        <circle class="st1" cx="701.3" cy="224" r="26"/>
        <path class="st5" d="M627.2,320.6c7.2,2.7,10.4,2.6,10.4,2.6c-0.9-4.8-1.8-9.9-1.8-10.3c0,0-12-4-20-12c-12-12-6-24-16-34
		c-8.3-8.3-18.8-12-22.3-13c-0.1,0.1-0.2,0.1-0.2,0.2v0c0.2,0.1,12.9,5.3,21.3,16.6c8.5,11.3,0.8,22.4,11,36
		C615.8,315,620.9,318.3,627.2,320.6z"/>
        <path class="st5" d="M655.1,363.7c-8.1,3.4-17,5.2-26.3,5.2c-4.8,0-9.6-0.5-14.1-1.5l5.9,15.1c1.7-0.2,3.3-0.5,5-0.9
		c11.7-2.7,22-8.4,30.3-16.1L655.1,363.7z"/>
        <path class="st15" d="M645.3,374.2c-13.7,0-24.9-11.2-24.9-24.9c0-13.7,11.2-24.9,24.9-24.9c13.7,0,24.9,11.2,24.9,24.9
		C670.2,363,659,374.2,645.3,374.2z M645.3,328.5c-11.5,0-20.8,9.3-20.8,20.8s9.3,20.8,20.8,20.8s20.8-9.3,20.8-20.8
		S656.8,328.5,645.3,328.5z"/>
        <path class="st1" d="M725.8,387.9c2.8-1,4.4-4,3.4-6.9l-33.1-100.1c-8.3-29.4-35.3-51-67.4-51c-20.9,0-39.6,9.2-52.5,23.6v0
		c0.2,0,13.5,3.4,23.4,13.4c10,10,4,22,16,34c8,8,20,12,20,12c0,1.2,5.9,31.4,10.6,54.8c1,5.1,2,11.1,2.8,15.7c0.4,2.2,1.9,4,4,4.9
		c12.1,4.9,26.1,7.4,41,6.7C704.8,394.5,718.5,390.3,725.8,387.9z"/>
        <path class="st17" d="M718.4,591.6c0,0,4.8,19.6,3.3,19.6c-1.5-0.1-59.4-11.5-74.4-14.8c-33.1-7.1-38.2-29.6-38.2-29.6
		s2.6-0.1,5.4-2.2c2.8-2.1,3.8-2.9,3.8-2.9s4.7,11.6,33.5,20C691.7,593.3,718.4,591.6,718.4,591.6z"/>
        <path class="st18" d="M388.2,815.7c0,0,13.2-0.1,19.9-1.3c6.7-1.2,19.6-7.6,19.6-7.6s7.6,16.8,9.8,21.2s11.6,15.5,12.8,22.7
		c1.2,7.2,1.5,23.4-26.4,25.9c-12.9,1.1-25.1,27.4-39.2,29.3c-7,1-40.1,4.6-49.5-0.5c-9.3-5.1-6.4-18.9,16.3-26.4
		c22.7-7.5,18.4-15,23.8-24.7C380.6,844.6,388.2,815.7,388.2,815.7z"/>
        <path class="st2" d="M310.9,789.9c-2,16.3-3.9,32.5-5.9,48.8c-1.3,10.9,10.3,20.3,20.3,20.3c12,0,18.9-9.4,20.3-20.3
		c2-16.3,3.9-32.5,5.9-48.8c1.3-10.9-10.3-20.3-20.3-20.3C319.1,769.7,312.2,779,310.9,789.9L310.9,789.9z"/>
        <path class="st17" d="M630.5,728c29.3,2.9,56.4-5.3,77-25.2c20.5-19.9,19.3-53.4,18.1-66.9c-0.9-10.7-4.5-28-5.9-34.8
		c-0.4-1.7-1.7-3-3.4-3.3c-10.5-1.9-47.1-8.5-58-11.9c-8.9-2.8-16.8-5.8-20.7-7.4c-1.5-0.6-3.2-0.3-4.4,0.8
		c-3.3,3-11.3,8.5-24.2,7.2c-17.6-1.8-95-25.7-125.5-35.1c-30.5-9.4-81.7-32.1-129.1-16.4c-30.2,10-52.9,38.9-53.5,99.6
		c-0.4,47.1-0.5,107.4,0.3,130.1c0.6,17.9-0.1,36.8-0.4,44c-0.1,1.9,1,3.5,2.7,4.2c3.1,1.2,8.6,3,16.5,4.7
		c9.8,2.1,21.9,1.3,27.3,0.7c1.7-0.2,3.1-1.3,3.6-2.9c2.9-8.6,12.4-37.2,21-61.2c21.5-60.1,23.3-92.4,22.3-107
		c-0.3-3.6,3.7-5.9,6.7-3.8c14.2,9.8,44.7,29.9,78.9,45.2C526.7,709.7,594,724.3,630.5,728z"/>
        <path class="st15" d="M671.7,591.3c0.2,21.1-6.4,42.7-21.7,57.8c-6.9,6.8-15.4,12.2-24.7,15c-11.2,3.4-23,2.8-34.4,1
		c-42.7-6.8-81.8-26.5-120.4-44.9c-19.4-9.3-38.9-18.4-59.2-25.7c-5.1-1.8-10.2-3.6-15.3-5.1c-5.7-1.7-11.6-3.3-17.5-2.6
		c-9.6,1-17,7.6-22,15.4c-5.3,8.3-7.9,18.3-10,27.9c-2.4,10.6-3.9,21.4-4.9,32.2c-1.5,15.6-1.9,31.2-3.3,46.8
		c-2.9,31-6.4,62.2-11.9,92.9c-0.4,2.5-0.9,4.9-1.4,7.3c-0.7,3.4,4.5,4.9,5.2,1.4c2.7-12.8,4.5-25.8,6.2-38.8
		c2.3-16.8,4.3-33.7,6.1-50.6c1.5-14.2,2.5-28.3,3.3-42.6c1.1-21.1,3.4-42.8,10.3-63c2.9-8.6,7.9-17.5,16.3-21.8
		c10-5.1,22.1,0.2,31.8,3.6c20.5,7,40.3,16,59.8,25.4c38.7,18.4,77.6,38.5,120.2,46.4c11.6,2.1,23.4,3.6,35.1,1.7
		c9.6-1.6,18.9-5.7,26.7-11.5c16.9-12.4,27.1-31.7,30.2-52.3c0.8-5.3,1.2-10.7,1.1-16.1C677.1,587.8,671.7,587.8,671.7,591.3
		L671.7,591.3z"/>
        <path class="st2" d="M382.6,514.2c9-8.7,20.8-11.8,32.8-14.1c8.5-1.7,5.5-14.9-3.1-13.2c-14.2,2.8-28.2,7.1-38.9,17.4
		C367.2,510.3,376.3,520.3,382.6,514.2L382.6,514.2z"/>
        <path class="st2" d="M431.7,518.2l-29.2,7.2c-4.3,1.1-8.7-1.6-9.7-5.9l-4.6-18.5c-1.1-4.3,1.6-8.7,5.9-9.7l29.2-7.2
		c4.3-1.1,8.7,1.6,9.7,5.9l4.6,18.5C438.6,512.8,436,517.2,431.7,518.2z"/>
        <path class="st19" d="M674.3,766.7H477.8v-41.1h196.5c5.6,0,10.1,4.5,10.1,10.1v20.8C684.4,762.1,679.9,766.7,674.3,766.7z"/>
        <path class="st0" d="M796.7,722.4H469.4c-0.8,0-1.5,0.7-1.5,1.5l0,0c0,0.8,0.7,1.5,1.5,1.5h194.1c11.4,0,20.6,9.2,20.6,20.6l0,0
		c0,11.4-9.2,20.6-20.6,20.6H469.4c-0.8,0-1.5,0.7-1.5,1.5l0,0c0,0.8,0.7,1.5,1.5,1.5h327.3c11.4,0,20.6-9.2,20.6-20.6v-6
		C817.3,731.6,808.1,722.4,796.7,722.4z"/>
        <path class="st20" d="M237.7,934.8c4.9,9.9,29.5,14.3,54.9-3.9c38.4-27.5,61.4-19.1,61.4-42.1c0-10.3-2.1-19.8-4.8-30.7
		c-2.5-9.9-2.4-28.6-2.4-28.6s-18.3,2-27.6,0.3c-7.2-1.3-12.4-4.1-12.4-4.1s-2.7,14.8-11.2,30.4c-6,11-10.4,17.7-20.6,27.1
		C268.7,888.9,229.5,918.4,237.7,934.8z"/>
        <path class="st21" d="M627.2,757.6H477.8v-1.9h149.4c0.5,0,1,0.4,1,1l0,0C628.2,757.1,627.8,757.6,627.2,757.6z"/>
        <path class="st21" d="M643.5,737.4H477.8v-1.9h165.6c0.5,0,1,0.4,1,1l0,0C644.4,736.9,644,737.4,643.5,737.4z"/>
        <path class="st21" d="M661.7,747.1H477.8v-1.9h183.9c0.5,0,1,0.4,1,1l0,0C662.7,746.6,662.2,747.1,661.7,747.1z"/>
        <g>
		<path class="st22" d="M827.5,148c13.6,14.1,21.3,29.6,29.8,47c2.4,4.8,17-4.8,15.9-9.5c-4.5-18.6-16.7-34.8-30.3-48
			C838.5,133.3,823.9,144.3,827.5,148L827.5,148z"/>
            <path class="st22" d="M910.4,146.3c-0.4,17.2-4,33.3-7.3,50.1c-1.5,7.4,12.7-1.3,14.2-5.1c6.3-16.4,8.1-35.2,7.9-52.7
			C925.1,133.4,910.5,141.1,910.4,146.3L910.4,146.3z"/>
            <path class="st22" d="M944.4,217.4c10.6-5.2,21.4-10.3,32.2-15.1c3.9-1.7,9-6.3,7.9-11.1c-1.1-4.8-7.2-4.4-10.7-2.9
			c-10.8,4.9-21.5,9.9-32.2,15.1c-3.8,1.9-9,6.2-7.9,11.1C934.8,219.3,941,219.1,944.4,217.4L944.4,217.4z"/>
	</g>
        <path class="st23" d="M585.2,981h-46.4c0,0-7.5,2.5-13.9,14.4c-7.9,14.8-5.1,29.1-10.2,40.1c-5.9,12.7-15.1,17.6-15.1,17.6
		s10.3,1.4,16.5,0.5c5.6-0.8,12.5-5.5,12.5-5.5s1.3,2.7,1.6,7.4c0.4,5.1-0.1,7.9-0.1,7.9s17-4,23.9-13.8c9.6-13.6,1.6-30.3,14-50.9
		C573.5,989.6,585.2,981,585.2,981z"/>
        <g>

			<ellipse transform="matrix(0.4276 -0.904 0.904 0.4276 211.4466 947.6675)" class="st24" cx="854" cy="306.9" rx="7.9" ry="20.7"/>
            <g>
			<g>
				<path class="st25" d="M838.9,291.4c3.5-6.9,6.5-14.1,7.7-21.7c2.7-16.5-2.3-35.4,7.7-48.7c7.2-9.6,20.5-12.9,32.4-11.6
					c14.5,1.6,28.7,9.7,35.8,22.5s5.9,30.2-4.2,40.8c-8.5,8.9-21.5,12-30.5,20.4c-5,4.7-8.4,10.8-12.1,16.7l-1.2,1.8
					C846.3,309.5,838.9,291.4,838.9,291.4z"/>
			</g>
		</g>
            <path class="st23" d="M887.6,264.4c-1.3-4.3-5-3.9-8.4-2.4c-0.9-2.3-2.3-5.4-4.8-6.3c-2.8-1-5.9,1-8,2.7
			c-4.6,3.8-8.1,9.3-10.1,14.9c-2,5.6-2.9,11.6-4.7,17.2c-0.7,2.3,2.9,3.2,3.6,0.9c2.3-7.2,3-15.1,6.7-21.7c2.1-3.7,5.1-8,9-9.9
			c1.3-0.6,2.2-0.8,3.1,0.5c0.7,1,1.2,2.1,1.6,3.2c0,0.1,0.1,0.2,0.1,0.3c-0.5,0.3-0.9,0.6-1.3,0.9c-3.8,3-8.7,8.3-8.5,13.5
			c0.1,2.3,1.7,4.3,4.1,4.4c2.7,0.1,5.3-2.1,6.9-4.1c3-3.7,3.9-8.6,3.1-13.2c0.8-0.5,1.7-0.8,2.5-0.9c2.3-0.2,1.4,3.6,1.1,4.9
			c-1.1,4.3-3.4,8.1-5.6,11.8c-1.7,2.8-3.2,5.8-5.3,8.3c-2.3,2.8-5.4,4.8-8.3,6.9c-2,1.3,0,4.5,2,3.2c3.5-2.3,7-4.8,9.6-8.1
			c2.7-3.6,5-7.6,7.2-11.5C885.7,275.8,889.2,269.5,887.6,264.4z M876.6,271.2c-0.4,2-1.2,3.9-2.6,5.4c-0.8,0.9-4.3,4-4.1,1.2
			c0.1-1.7,1.4-3.5,2.3-4.9c1.2-1.8,2.8-3.5,4.5-4.9C876.8,269.1,876.8,270.1,876.6,271.2z"/>
            <path class="st23" d="M850.7,314c-9.3-4.4-15.7-10.6-15.6-14.7l0,0l-4.1,16.5c-1.5,3.2,4,9,12.4,12.9c8.3,3.9,16.3,4.6,17.8,1.4
			c0.1-0.2,0.1-0.3,0.2-0.5l0,0l10.6-12.9l0,0C868.9,319.4,860,318.4,850.7,314z"/>
	</g>
        <path class="st26" d="M326.9,527.3L326.9,527.3c-3.3,0.9-6.7-1-7.7-4.3l-43.6-156.2c-0.9-3.3,1-6.7,4.3-7.7l0,0
		c3.3-0.9,6.7,1,7.7,4.3l43.6,156.2C332.2,523,330.3,526.4,326.9,527.3z"/>
        <path class="st26" d="M319,521L319,521c0.2-3.4,3.1-6.1,6.6-5.9l161.9,9.5c3.4,0.2,6.1,3.1,5.9,6.6l0,0c-0.2,3.4-3.1,6.1-6.6,5.9
		l-161.9-9.5C321.5,527.4,318.8,524.5,319,521z"/>
        <g>
		<path class="st25" d="M954.5,626.6l-7.1-1.9c-0.4-0.1-0.7-0.6-0.6-1c0.1-0.4,0.6-0.7,1-0.6l5.5,1.5l1.5-5.5c0.1-0.4,0.6-0.7,1-0.6
			c0.4,0.1,0.7,0.6,0.6,1L954.5,626.6z"/>
            <path class="st25" d="M934.8,621.2c-0.1,0-0.1,0-0.2,0l-12.8-3.5c-0.4-0.1-0.7-0.6-0.6-1c0.1-0.4,0.6-0.7,1-0.6l12.8,3.5
			c0.4,0.1,0.7,0.6,0.6,1C935.5,621,935.2,621.2,934.8,621.2z M909.2,614.3c-0.1,0-0.1,0-0.2,0l-12.8-3.5c-0.4-0.1-0.7-0.6-0.6-1
			s0.6-0.7,1-0.6l12.8,3.5c0.4,0.1,0.7,0.6,0.6,1C909.9,614.1,909.6,614.3,909.2,614.3z M883.7,607.4c-0.1,0-0.1,0-0.2,0l-12.8-3.5
			c-0.4-0.1-0.7-0.6-0.6-1c0.1-0.4,0.6-0.7,1-0.6l12.8,3.5c0.4,0.1,0.7,0.6,0.6,1C884.3,607.2,884,607.4,883.7,607.4z"/>
            <path class="st25" d="M858.1,600.5c-0.1,0-0.1,0-0.2,0l-7.1-1.9l1.9-7.1c0.1-0.4,0.6-0.7,1-0.6c0.4,0.1,0.7,0.6,0.6,1l-1.5,5.5
			l5.5,1.5c0.4,0.1,0.7,0.6,0.6,1C858.7,600.3,858.4,600.5,858.1,600.5z"/>
            <path class="st25" d="M856.9,579.7c-0.1,0-0.1,0-0.2,0c-0.4-0.1-0.7-0.6-0.6-1l3.4-12.8c0.1-0.4,0.6-0.7,1-0.6
			c0.4,0.1,0.7,0.6,0.6,1l-3.4,12.8C857.6,579.5,857.3,579.7,856.9,579.7z M863.8,554.2c-0.1,0-0.1,0-0.2,0c-0.4-0.1-0.7-0.6-0.6-1
			l3.4-12.8c0.1-0.4,0.6-0.7,1-0.6c0.4,0.1,0.7,0.6,0.6,1l-3.4,12.8C864.5,553.9,864.2,554.2,863.8,554.2z"/>
            <path class="st25" d="M870.7,528.6c-0.1,0-0.1,0-0.2,0c-0.4-0.1-0.7-0.6-0.6-1l1.9-7.1l7.1,1.9c0.4,0.1,0.7,0.6,0.6,1
			c-0.1,0.4-0.6,0.7-1,0.6l-5.5-1.5l-1.5,5.5C871.4,528.4,871.1,528.6,870.7,528.6z"/>
            <path class="st25" d="M955.5,544.7c-0.1,0-0.1,0-0.2,0l-12.8-3.5c-0.4-0.1-0.7-0.6-0.6-1c0.1-0.4,0.6-0.7,1-0.6l12.8,3.5
			c0.4,0.1,0.7,0.6,0.6,1C956.2,544.5,955.8,544.7,955.5,544.7z M929.9,537.8c-0.1,0-0.1,0-0.2,0l-12.8-3.5c-0.4-0.1-0.7-0.6-0.6-1
			c0.1-0.4,0.6-0.7,1-0.6l12.8,3.5c0.4,0.1,0.7,0.6,0.6,1C930.6,537.6,930.2,537.8,929.9,537.8z M904.3,530.9c-0.1,0-0.1,0-0.2,0
			l-12.8-3.5c-0.4-0.1-0.7-0.6-0.6-1c0.1-0.4,0.6-0.7,1-0.6l12.8,3.5c0.4,0.1,0.7,0.6,0.6,1C905,530.7,904.7,530.9,904.3,530.9z"/>
            <path class="st25" d="M972.9,556.2c-0.1,0-0.1,0-0.2,0c-0.4-0.1-0.7-0.6-0.6-1l1.5-5.5l-5.5-1.5c-0.4-0.1-0.7-0.6-0.6-1
			c0.1-0.4,0.6-0.7,1-0.6l7.1,1.9l-1.9,7.1C973.6,556,973.2,556.2,972.9,556.2z"/>
            <path class="st25" d="M959.1,607.3c-0.1,0-0.1,0-0.2,0c-0.4-0.1-0.7-0.6-0.6-1l3.4-12.8c0.1-0.4,0.6-0.7,1-0.6
			c0.4,0.1,0.7,0.6,0.6,1l-3.4,12.8C959.8,607.1,959.4,607.3,959.1,607.3z M966,581.8c-0.1,0-0.1,0-0.2,0c-0.4-0.1-0.7-0.6-0.6-1
			l3.4-12.8c0.1-0.4,0.6-0.7,1-0.6c0.4,0.1,0.7,0.6,0.6,1l-3.4,12.8C966.7,581.5,966.3,581.8,966,581.8z"/>
	</g>
        <g>
		<path class="st13" d="M679.1,560.1c-20.1-1.8-35.9-5.7-45.6-8.7c14.1,8.4,31,14.2,49.5,16.2c11.3,1.2,22.4,1,32.8-0.6
			c-0.1-2.7-0.1-5-0.1-7.1C705.9,561,693.3,561.4,679.1,560.1z"/>
            <path class="st13" d="M623.7,539.9C623.7,539.9,623.7,539.9,623.7,539.9L623.7,539.9L623.7,539.9z"/>
	</g>
        <g>
		<path class="st25" d="M216.4,327.1c-0.3,0-0.5-0.1-0.7-0.3c-1.3-1.8-2.3-3.8-3.2-5.9c-0.2-0.4,0-0.9,0.4-1.1
			c0.4-0.2,0.9,0,1.1,0.4c0.8,2,1.8,3.9,3,5.6c0.3,0.4,0.2,0.9-0.2,1.1C216.7,327,216.5,327.1,216.4,327.1z"/>
            <path class="st25" d="M210.7,308.2c-0.4,0-0.8-0.4-0.8-0.8l0-0.4c0-4.4,0.7-8.8,2-13.2c0.1-0.4,0.6-0.7,1-0.5
			c0.4,0.1,0.7,0.6,0.5,1c-1.3,4.2-2,8.5-2,12.7l0,0.3C211.5,307.8,211.1,308.2,210.7,308.2C210.7,308.2,210.7,308.2,210.7,308.2z
			 M218.5,282.7c-0.2,0-0.3,0-0.4-0.1c-0.4-0.2-0.5-0.7-0.2-1.1c2.3-3.6,5.2-7.2,8.6-10.6c0.3-0.3,0.8-0.3,1.1,0
			c0.3,0.3,0.3,0.8,0,1.1c-3.3,3.3-6.1,6.8-8.4,10.3C219,282.6,218.8,282.7,218.5,282.7z M237.2,263.4c-0.2,0-0.5-0.1-0.6-0.3
			c-0.3-0.4-0.2-0.9,0.2-1.1c2.2-1.7,4.6-3.4,7.2-5.1c1.3-0.9,2.7-1.8,4-2.6c0.4-0.2,0.9-0.1,1.1,0.2c0.2,0.4,0.1,0.9-0.2,1.1
			c-1.3,0.9-2.7,1.7-4,2.6c-2.6,1.7-4.9,3.4-7.1,5.1C237.5,263.3,237.4,263.4,237.2,263.4z M259.7,248.4c-0.3,0-0.5-0.1-0.7-0.4
			c-0.2-0.4-0.1-0.9,0.2-1.1c4.5-2.9,7.9-5.3,10.9-7.8c0.3-0.3,0.9-0.2,1.1,0.1c0.3,0.3,0.2,0.9-0.1,1.1c-3.1,2.5-6.5,4.9-11.1,7.9
			C260,248.4,259.8,248.4,259.7,248.4z M306.4,240.3c-0.4,0-0.8-0.4-0.8-0.8c0-0.4,0.3-0.8,0.8-0.8c4.4-0.1,8.8-0.6,13.2-1.7
			c0.4-0.1,0.9,0.2,1,0.6c0.1,0.4-0.2,0.9-0.6,1C315.5,239.6,310.9,240.2,306.4,240.3C306.4,240.3,306.4,240.3,306.4,240.3z
			 M293,239.1c-0.1,0-0.1,0-0.2,0c-4.5-0.9-8.9-2.3-13-4.1c-0.4-0.2-0.6-0.7-0.4-1.1c0.2-0.4,0.7-0.6,1.1-0.4c4,1.8,8.3,3.1,12.7,4
			c0.4,0.1,0.7,0.5,0.6,1C293.7,238.8,293.4,239.1,293,239.1z M332.6,234.4c-0.3,0-0.6-0.2-0.7-0.5c-0.2-0.4,0-0.9,0.4-1.1
			c3.9-1.7,7.8-3.7,11.9-6.2c0.4-0.2,0.9-0.1,1.1,0.3c0.2,0.4,0.1,0.9-0.3,1.1c-4.2,2.5-8.1,4.5-12.1,6.2
			C332.8,234.3,332.7,234.4,332.6,234.4z M280.4,231.3c-0.2,0-0.4-0.1-0.5-0.2c-0.3-0.3-0.4-0.8-0.1-1.1c3-3.5,5.3-7.3,7.1-11.2
			c0.2-0.4,0.7-0.6,1.1-0.4c0.4,0.2,0.6,0.7,0.4,1.1c-1.8,4-4.3,7.9-7.3,11.6C280.8,231.2,280.6,231.3,280.4,231.3z M268.6,228.1
			c-0.2,0-0.4-0.1-0.5-0.2c-3.8-3-6.9-6.4-9.2-10.2c-0.2-0.4-0.1-0.9,0.3-1.1c0.4-0.2,0.9-0.1,1.1,0.3c2.2,3.6,5.2,6.9,8.8,9.8
			c0.3,0.3,0.4,0.8,0.1,1.1C269,228,268.8,228.1,268.6,228.1z M355.8,220.7c-0.3,0-0.5-0.1-0.7-0.3c-0.3-0.4-0.2-0.9,0.2-1.1
			c3.4-2.4,6.5-4.8,9.5-7.2l1.3-1c0.4-0.3,0.9-0.2,1.1,0.1s0.2,0.9-0.1,1.1l-1.3,1c-3,2.3-6.2,4.7-9.5,7.2
			C356.1,220.6,356,220.7,355.8,220.7z M290.9,206.9C290.9,206.9,290.9,206.9,290.9,206.9c-0.5,0-0.8-0.4-0.8-0.9c0-0.5,0-1,0-1.6
			c0-1.8-0.2-3.6-0.5-5.4c-0.4-2-1-3.9-2-5.8c-0.2-0.4,0-0.9,0.4-1.1c0.4-0.2,0.9,0,1.1,0.4c1,2,1.7,4.1,2.1,6.2
			c0.4,1.8,0.5,3.8,0.5,5.7c0,0.6,0,1.1,0,1.7C291.7,206.5,291.3,206.9,290.9,206.9z M255,205.5c-0.4,0-0.8-0.3-0.8-0.7
			c-0.1-0.9-0.1-1.9-0.1-2.8c0-3.8,0.8-7.5,2.2-10.8c0.2-0.4,0.7-0.6,1.1-0.4c0.4,0.2,0.6,0.7,0.4,1.1c-1.4,3.1-2.1,6.6-2.1,10.2
			c0,0.9,0,1.8,0.1,2.6C255.9,205.1,255.6,205.5,255,205.5C255.1,205.5,255.1,205.5,255,205.5z M279.2,184c-0.1,0-0.3,0-0.4-0.1
			c-3.3-1.9-6.9-2.5-10.2-1.7c-0.7,0.2-1.4,0.4-2.1,0.6c-0.4,0.2-0.9,0-1-0.5c-0.2-0.4,0-0.9,0.5-1c0.7-0.3,1.5-0.5,2.3-0.7
			c3.8-0.8,7.7-0.2,11.4,1.9c0.4,0.2,0.5,0.7,0.3,1.1C279.8,183.9,279.5,184,279.2,184z"/>
            <path class="st25" d="M377.6,204.6c-0.3,0-0.5-0.1-0.7-0.4c-0.2-0.4-0.1-0.9,0.3-1.1c2.3-1.4,4.3-2.4,6.1-2.9
			c0.4-0.1,0.9,0.1,1,0.6c0.1,0.4-0.1,0.9-0.6,1c-1.6,0.5-3.5,1.3-5.7,2.7C377.9,204.6,377.8,204.6,377.6,204.6z"/>
	</g>
</g>
</svg>
