
<!-- Generator: Adobe Illustrator 24.1.0, SVG Export Plug-In . SVG Version: 6.00 Build 0)  -->
<svg version="1.1" id="Layer_1" xmlns="http://www.w3.org/2000/svg" xmlns:xlink="http://www.w3.org/1999/xlink" x="0px" y="0px"
     viewBox="0 0 1200 1200" style="enable-background:new 0 0 1200 1200;" xml:space="preserve">
<style type="text/css">
	.st0{fill:#7A5734;}
	.st1{fill:#DEC7B2;}
	.st2{fill:#E8D4C1;}
	.st3{fill:#BA9C7E;}
	.st4{fill:#EBDBCD;}
	.st5{fill:#4C7378;}
	.st6{fill:#57848A;}
	.st7{fill:#689399;}
	.st8{fill:#7A5B3C;}
	.st9{fill:#A67C52;}
	.st10{fill:#676BC4;}
	.st11{fill:#4A52BD;}
	.st12{fill:#2F37A8;}
	.st13{fill:#868AE0;}
	.st14{fill:#AB534D;}
	.st15{fill:#FCB58A;}
	.st16{fill:#110580;}
	.st17{fill:#001D80;}
	.st18{fill:#FCFAF8;}
	.st19{fill:#FF8A91;}
	.st20{fill:#FFADB2;}
	.st21{fill:#FFFFFF;}
	.st22{fill:#C7645D;}
	.st23{fill:#F0A173;}
	.st24{fill:none;}
	.st25{fill:#E3996D;}
	.st26{fill:#D4BFA9;}
	.st27{fill:#E0E0E0;}
	.st28{fill:#C5C6E3;}
	.st29{fill:#E8E9FF;}
	.st30{fill:none;stroke:#FFB2B1;stroke-width:2;stroke-miterlimit:10;}
	.st31{fill:#FF5856;}
	.st32{fill:#1F6771;}
	.st33{fill:#6B4D3A;}
	.st34{fill:#8A634B;}
</style>
    <g>
	<g>
		<path class="st0" d="M242,839.2c0-0.1,0-0.2,0-0.2c0,0.1,0,0.2,0,0.3C242,839.2,242,839.2,242,839.2z"/>
        <g>
			<g>
				<path class="st1" d="M296.3,674.5c-51.8,0-94-4.8-95.4-10.8l7.7,90.4c0,42.9,39.5,77.9,87.8,77.9h0c48.3,0,87.8-35.1,87.8-77.9
					l7.7-90.5c0,0,0,0,0,0C390.7,669.7,348.4,674.5,296.3,674.5z"/>
			</g>
            <path class="st2" d="M296.3,674.5c-52.6,0-95.3-4.9-95.5-11c0,0,0-0.1,0-0.1c0.4-6.1,43-11,95.5-11c52.5,0,95,4.9,95.5,11
				c0,0,0,0.1,0,0.1C391.6,669.6,348.9,674.5,296.3,674.5z"/>
            <path class="st3" d="M296.3,672.7c-44.4,0-80.4-4.2-80.5-9.3c0,0,0-0.1,0-0.1c0.4-5.1,36.3-9.3,80.5-9.3
				c44.3,0,80.2,4.1,80.5,9.3c0,0,0,0.1,0,0.1C376.7,668.5,340.7,672.7,296.3,672.7z"/>
            <path class="st4" d="M204.2,702.5c6.1,0.2,12.2,2.5,17.4,7.6c9.8,9.5,15.9,24.1,23.8,35.2c3-6,5.6-12.1,7.9-18.4
				c2.8-7.5,12.9-14.5,20.8-8.4c8.4,6.5,14.7,13.9,20.2,23.1c4.7,7.9,8.5,17.3,15.9,23.2c7.1,5.7,15.1,7.4,18-2.8
				c2.6-8.9,1.7-18.5,4.5-27.4c2.4-7.4,6.2-15.2,13.8-18.4c9-3.9,17.7,0.9,25.7,5c4.8,2.4,9.5,5,14.1,7.7l-1.6,19.1
				c-8.2-5.1-18.2-11.4-26.6-12.6c-5.3-0.8-4.9,2.8-5.3,7.8c-0.3,4.5-0.3,9-0.5,13.4c-0.5,9.1-1.8,18.2-7.2,25.7
				c-11.5,16.2-33.1,15.4-48.3,5.1c-8.2-5.5-14.1-12.7-19.3-21c-1.7-2.7-3.3-5.5-5-8.3c-6.5,15.1-16.5,28.7-32.9,23
				c-10.2-3.6-16.8-14.7-22.9-23c-1.9-2.6-5.4-8.8-8.9-14.4L204.2,702.5z"/>
		</g>
        <path class="st5" d="M166.7,365.6c2-7.7,11.1-8.9,16.5-4.4c10.2,8.5,15.5,20.3,21.1,32c5.8,12.3,13.1,23.5,21.5,34.2
			c17.1,21.8,36.1,42.1,48.7,67.1c24.3,48.4,30.1,105.5,13.4,157.3c-0.5,1.6,2.7-6.6-2.5,7.8c-4.7,13-23.2,6-23-9.1
			c0.2-14.8-3.8-28.6-10.4-41.8c-13-26.1-29.3-50.4-42-76.8c-12.8-26.5-24.1-53.8-33.2-81.7C167.9,423,159.5,394.2,166.7,365.6z"/>
        <path class="st6" d="M285.9,213.6c6.5-11.9,25.8-3.8,21.9,9.2c-11.2,38.3-3.2,78.9,3.8,117.2c7.1,39.1,15.3,78,20.2,117.4
			c8.6,70.1,5.8,148.8-38.6,207.3c-4.8,6.3-14.8,1-10.9-6.4c4.4-8.3-6.7-62.9-11.6-80.4c-5-18-10-36.1-14.5-54.2
			c-8.8-35.4-16-71.6-18-108.1C234.4,344.6,251.9,275.8,285.9,213.6z"/>
        <path class="st7" d="M307,603.2c5.2-23.9,1.4-49.1,6.5-72.9c5-23.3,11.8-46.9,22.7-68.2c10.3-20.2,26.1-34.6,44.6-47.1
			c17.4-11.8,38-23.4,44.1-45c3.6-12.8,25.5-10.9,24.1,3.3c-2.9,28.9-15.1,54.4-29.3,79.4c-15.1,26.6-28.3,52-35.8,81.8
			c-12.7,51.1-23.7,117.4-82,133.1C294.8,669.4,295.9,654.2,307,603.2z"/>
	</g>
        <polygon class="st2" points="924.9,176.7 922,174 949.6,144.3 971.2,174.2 967.9,176.5 949.2,150.6 	"/>
        <g>
		<path class="st8" d="M827.1,945.5L827.1,945.5c-7.9,2.1-16.5-3.3-20.3-12.8L786,879.9c-4.6-11.6,0.1-24.3,9.8-26.8l12.9-3.4
			c9.7-2.6,20,6.2,21.8,18.5l7.9,56.2C839.8,934.4,835,943.4,827.1,945.5z"/>
            <path class="st8" d="M495.5,945.5L495.5,945.5c7.9,2.1,16.5-3.3,20.3-12.8l20.8-52.8c4.6-11.6-0.1-24.3-9.8-26.8l-12.9-3.4
			c-9.7-2.6-20,6.2-21.8,18.5l-7.9,56.2C482.7,934.4,487.5,943.4,495.5,945.5z"/>
            <path class="st9" d="M876.5,997.1L876.5,997.1c-10.3,2.7-21.5-4.3-26.3-16.6l-27-68.6c-5.9-15,0.1-31.5,12.8-34.8l16.8-4.4
			c12.6-3.3,26,8,28.3,24l10.2,73C893.1,982.8,886.8,994.4,876.5,997.1z"/>
            <path class="st9" d="M446,997.1L446,997.1c10.3,2.7,21.5-4.3,26.3-16.6l27-68.6c5.9-15-0.1-31.5-12.8-34.8l-16.8-4.4
			c-12.6-3.3-26,8-28.3,24l-10.2,73C429.5,982.8,435.7,994.4,446,997.1z"/>
            <path class="st10" d="M909.2,724.8H420.9c-29.3,0-53.2-23.9-53.2-53.2V469.5c0-29.3,23.9-53.2,53.2-53.2h488.2
			c29.3,0,53.2,23.9,53.2,53.2v202.1C962.4,700.9,938.4,724.8,909.2,724.8z"/>
            <path class="st10" d="M927.6,625.3c-9,0.1-16.5,7-17.3,16c-3.3,34.4-13,112.7-34.2,151.7c-14.6,26.8-57.4,29.3-68.8,29.4H522.9
			c-11.4-0.2-54.2-2.6-68.8-29.4c-21.2-39-31-117.2-34.2-151.7c-0.9-9-8.3-15.8-17.3-16l-90.4-1.3c-10.3-0.1-18.6,8.5-17.9,18.9
			c3,42.9,14.8,148.4,60.6,216.3c24.9,36.8,63.6,48.2,73.3,50.5c1.4,0.3,2.8,0.5,4.2,0.5h467.2c1.6,0,3.2-0.2,4.7-0.6
			c12.5-3.5,47.7-16,71-50.3c45.9-67.8,57.7-173.4,60.6-216.3c0.7-10.3-7.5-19-17.9-18.9L927.6,625.3z"/>
            <path class="st11" d="M522.9,822.4h284.3c11.4-0.2,54.2-2.6,68.8-29.4c22.5-41.3,32.1-126.8,34.8-157.5c0.6-6.5-0.8-12.9-3.8-18.6
			l-18.8-35.4c-1.1-2-4-1.5-4.4,0.6c-5.1,25.4-24.1,116-34,122.6c-11.6,7.7-363.3,1-376.8,0c-11.5-0.8-23.5-94.1-26.8-121.6
			c-0.3-2.3-3.4-2.9-4.5-0.8l-18.2,34.3c-3.2,6-4.5,12.7-3.9,19.4c2.7,30.4,12.3,115.9,34.7,157
			C468.7,819.8,511.5,822.2,522.9,822.4z"/>
            <path class="st12" d="M834.9,822.4H487.6c-1,0-2,0-2.9-0.1c-34.9-1.3-57.5-34.8-44.7-64.8l15.8-37c1.4-3.2,2.5-6.5,3-9.9
			c3.2-21.8,36.4-39.1,66.3-39.1h272.5c29.9,0,63,17.3,66.3,39.1c0.5,3.4,1.6,6.7,3,9.9l15.8,37c12.8,30-9.8,63.5-44.7,64.8
			C836.9,822.4,835.9,822.4,834.9,822.4z"/>
            <path class="st13" d="M419.4,635.9c-0.6-6.7,0.8-13.5,3.9-19.4l18.2-34.3l0,0h0c1-1.9,3.8-1.5,4.4,0.5l0,0c0,0-0.4-6.3-13.5-7.2
			h-51.2c-8.9,0-17.6,2.6-25.1,7.4l-46.9,30.4c-9.9,6.4-15.7,17.7-15.1,29.5c-0.7-10.3,7.5-19,17.9-18.9l90.4,1.3
			c8.4,0.1,15.5,6.2,17.1,14.3l0.1,0.1l0,0C419.6,638.4,419.5,637.1,419.4,635.9z"/>
            <path class="st13" d="M910.2,636.1c0.6-6.7-0.8-13.5-4-19.5L888,582.3l0,0h0c-1-1.9-3.8-1.5-4.4,0.5l0,0c0,0,0.4-6.3,13.5-7.2
			h51.3c8.9,0,17.7,2.6,25.1,7.4l47.1,30.6c10,6.5,15.7,17.8,15.1,29.6c0.7-10.3-7.6-19.1-17.9-18.9l-90.7,1.3
			c-8.5,0.1-15.6,6.2-17.2,14.4l-0.1,0.1l0,0C910,638.6,910.1,637.3,910.2,636.1z"/>
	</g>
        <path class="st14" d="M896,704.7c0,0,14.7,1.7,25.3,12.6c10.6,10.9,7.1,29.2,0,34.9c-12.3,9.8-36,9.8-53.8,9.8s-29.7-4-29.7-4
		l22.8-56.5C860.6,701.5,874.9,699,896,704.7z"/>
        <path class="st15" d="M685.4,875.9c-8.8,16-17.5,31.9-26.3,47.9c-5.9,10.7,2.2,25.2,12.5,29.3c12.4,5,23.4-1.8,29.3-12.5
		c8.8-16,17.5-31.9,26.3-47.9c5.9-10.7-2.2-25.2-12.5-29.3C702.3,858.4,691.3,865.2,685.4,875.9L685.4,875.9z"/>
        <path class="st16" d="M767.5,370c0,0-19.4-62-26-88.1c-10.1-40.4-37.6-64.7-76.5-64.7c-39.4,0-67.1,24.7-78,64.9
		c-11.1,41.4-25.7,84.6-25.7,84.6c-1.7,5.5,1,11.4,6.3,13.5c12.5,5,38.7,13.8,97.3,13c52.3-0.7,79.4-8.1,93-9.5
		C764.8,383.1,769.3,376.5,767.5,370z"/>
        <path class="st15" d="M687.4,350.5h-44.7v77.3c0,5.8,4.7,10.5,10.5,10.5h23.7c5.8,0,10.5-4.7,10.5-10.5V350.5z"/>
        <polygon class="st17" points="634.8,244.4 634.8,244.4 634.8,244.4 	"/>
        <circle class="st16" cx="664.4" cy="183.3" r="27.9"/>
        <path class="st4" d="M1034,304.2H851.8c-1.1,0-2-0.9-2-2V174.5c0-1.1,0.9-2,2-2H1034c1.1,0,2,0.9,2,2v127.8
		C1036,303.3,1035.1,304.2,1034,304.2z"/>
        <path class="st18" d="M1009.7,284.9H876.1c-0.9,0-1.5-0.7-1.5-1.5v-90c0-0.9,0.7-1.5,1.5-1.5h133.6c0.9,0,1.5,0.7,1.5,1.5v90
		C1011.2,284.2,1010.5,284.9,1009.7,284.9z"/>
        <path class="st19" d="M429,672.5c0-35.3,34.4-59.8,70.4-68.9c73.4-18.7,202.3,5.7,202.3,5.7l-68.1,43.3c0,0,62.5,17.4,78.1,20.7
		c15.6,3.3,117.1,29.8,118.8,32.4c1.7,2.5-37.4,54.3-37.4,54.3s-190.3,2.2-248.8-5.4C485.7,746.9,429,732.7,429,672.5z"/>
        <path class="st20" d="M625,653.1c30.9,7.2,76.9,20.5,97.6,27c21.2,6.6,29.3,13,29.3,13s-38.5,33.8-55.5,100.7
		c-9.6,37.6-27.9,87.9-31.1,99c-0.5,1.7-0.1,3.5,1.1,4.8c3.7,4,12.3,12.7,21.5,17.7c11.2,6.2,31.7,13,33.8,10
		c0,0,89.5-87.6,124.4-137.9c34.9-50.3,67.1-91.1,53.3-126.1c-11.3-28.7-36.3-45.6-77.9-54.4c-63.6-13.3-137.6-8.1-137.6-8.1
		s-4.3,11-21.1,30.4C648.8,645.5,624.3,653,625,653.1z"/>
        <path class="st21" d="M598.6,351.8c-7.2,0-7.4-20.9-7.4-23.3s0.2-23.3,7.4-23.3c7.2,0,7.4,20.9,7.4,23.3S605.8,351.8,598.6,351.8z
		 M598.6,309.2c-1.3,1.3-3.5,8.2-3.5,19.3c0,11,2.1,18,3.5,19.3c1.3-1.3,3.5-8.2,3.5-19.3C602,317.4,599.9,310.4,598.6,309.2z"/>
        <path class="st21" d="M730.1,351.8c-7.2,0-7.4-20.9-7.4-23.3s0.2-23.3,7.4-23.3c7.2,0,7.4,20.9,7.4,23.3S737.3,351.8,730.1,351.8z
		 M730.1,309.2c-1.3,1.3-3.5,8.2-3.5,19.3c0,11,2.1,18,3.5,19.3c1.3-1.3,3.5-8.2,3.5-19.3C733.5,317.4,731.4,310.4,730.1,309.2z"/>
        <circle class="st15" cx="665.1" cy="293" r="74.1"/>
        <path class="st16" d="M589.5,298.5c0.1,1.2,0.2,2.4,0.3,3.5c0,0.1,0,0.3,0.1,0.4c0.2,1.3,0.3,2.6,0.5,3.8c0,0,0,0.1,0,0.1
		c0.2,1.4,0.5,2.7,0.8,4c5-20.4,23.4-35.6,45.3-35.6c2.7,0,5.4,0.2,8,0.7c1.9,0.4,4,0.7,6,0.7c13.8,0,25.2-10.4,26.7-23.8
		c0,0,0.1,0,0.1-0.1c-0.2,1.4-0.4,2.8-0.4,4.3c0,15.8,12.8,28.5,28.5,28.5c0,0,0.1,0,0.1,0c15.4,3.1,27.7,14.5,32.2,29.4
		c0,0,0,0,0,0c0.9-3.3,1.7-6.7,2.2-10.1c0-0.1,0-0.3,0-0.4c0.2-1.4,0.4-2.9,0.5-4.4c0-0.4,0.1-0.7,0.1-1.1c0.1-1.6,0.2-3.3,0.2-4.9
		c0-1.4,0-2.8-0.1-4.1c0-0.4-0.1-0.8-0.1-1.2c-0.1-1-0.1-1.9-0.2-2.9c0-0.4-0.1-0.9-0.2-1.3c-0.1-0.9-0.2-1.8-0.4-2.7
		c-0.1-0.4-0.2-0.9-0.2-1.3c-0.2-0.9-0.3-1.8-0.5-2.7c-0.1-0.4-0.2-0.8-0.3-1.2c-0.2-0.9-0.5-1.9-0.7-2.8c-0.1-0.3-0.2-0.7-0.3-1
		c-0.3-1-0.6-2-0.9-3c-0.1-0.3-0.2-0.5-0.3-0.8c-0.4-1.1-0.8-2.2-1.2-3.2c-0.1-0.1-0.1-0.3-0.2-0.4c-0.5-1.2-1-2.4-1.6-3.6
		c0,0,0,0,0,0c-6.5-13.9-17.2-25.5-30.4-33.2c0,0,0,0,0,0c-4.2-2.4-8.6-4.5-13.2-6.1c-0.2-0.1-0.3-0.1-0.5-0.2
		c-1.3-0.5-2.7-0.9-4-1.3c-0.2-0.1-0.4-0.1-0.7-0.2c-3-0.8-6-1.4-9.1-1.9c-0.4-0.1-0.8-0.1-1.2-0.1c-1.2-0.1-2.3-0.3-3.5-0.4
		c-0.4,0-0.9-0.1-1.3-0.1c-1.5-0.1-3.1-0.2-4.7-0.2c-41.8,0-75.7,33.9-75.7,75.7c0,1.4,0,2.8,0.1,4.2
		C589.5,298,589.5,298.2,589.5,298.5z"/>
        <path class="st22" d="M648.4,933.6c-1.6,2-15.2,20.7-16.4,30.6c-0.9,6.9-5,19.5-7.8,36.3c-2.8,16.8-11.6,52.4,14.5,61.9
		c22,8.1,27.3-5.6,32-12s17.7-57,18.7-62.4c1.9-11,14.1-45.9,14.1-45.9c1.4-2.9,2.1-4-1-4.9c-5.8-1.7-14.7-4.8-21.2-7.8
		c-7-3.3-14.1-9.8-18.1-13c-1.4-1.2-2.2-2-3.2-0.4C660,916,648.5,933.5,648.4,933.6z"/>
        <path class="st15" d="M546,469.8c-23,20.5-41.3,46.1-43.1,77.8c-1.8,32.7,17.9,57.7,46.5,70.9c8.5,4,18.8,2.4,23.9-6.3
		c4.4-7.5,2.3-19.9-6.3-23.9c-19-8.8-32-21.6-29-43.9c2.8-20.7,17.7-36.7,32.6-50C587.5,479.6,562.7,454.9,546,469.8L546,469.8z"/>
        <path class="st23" d="M750.2,494.4c7.7,10,14.2,20.7,19.8,32c4.7,9.6,10.9,20.9,9.7,32c-2.5,22.9-27.8,35.4-45.7,45.1
		c-19.7,10.7-2.2,40.9,17.6,30.1c27.3-14.8,56.5-34.2,62-67.4c2.8-17.1-2.1-32.5-9.1-48c-6.6-14.7-14.3-28.7-24.2-41.5
		c-5.8-7.4-15-11.5-23.9-6.3C749.1,474.8,744.4,486.9,750.2,494.4L750.2,494.4z"/>
        <path class="st21" d="M737.2,416.1c-19-10-40.4-15-49.8-16.5c-2.9,12.3-9.3,19.1-23.1,19.1c-14.1,0-18.9-7.1-21.6-19.7
		c-2.9,0.1-11.6,2.1-13.6,2.3c-24.8,2.2-41.9,12.3-54.6,21.2c-17.6,12.2-36.4,36.1-44.1,46.3c-2.2,2.9-2.1,6.9,0.2,9.7
		c4.2,5,11.3,12.8,18.5,17.6c12.8,8.5,34.1,8.5,34.1,8.5l3.2-29.4c0,0-5.4,32-6.5,53.2c-1.3,23.1,0,43.8,0,43.8l161.7,3.3
		c0,0,5.9-22.9,2.4-54.6c-0.9-8.2-9.8-43.3-9.8-43.3l7.5,23.3c0,0,11.3,0.4,30.6-8.1c5.9-2.6,14.1-8.9,18.9-12.7
		c2.2-1.7,2.6-4.9,0.9-7.1C783.5,461.1,756.5,426.2,737.2,416.1z"/>
        <path class="st24" d="M642.7,363.6v-13.1h44.7v13.1c28.5-9,49.6-34.9,51.5-65.9c-2.4-38.7-34.6-69.4-73.9-69.4
		c-39.3,0-71.5,30.7-73.9,69.4C593.1,328.7,614.2,354.5,642.7,363.6z"/>
        <path class="st25" d="M665.1,367c-7.8,0-15.3-1.2-22.4-3.5v13.8c7.1,2.2,14.8,2.3,22.7,1.6c10.5-1,15-3,22.1-6v-9.4
		C680.4,365.8,672.9,367,665.1,367z"/>
        <g>
		<path class="st26" d="M948.4,156c-0.5,0-1.1-0.2-1.5-0.7c-0.7-0.8-0.5-2,0.3-2.6l14.7-11.8c0.8-0.6,2-0.5,2.6,0.3
			c0.7,0.8,0.5,2-0.3,2.6l-14.7,11.8C949.2,155.8,948.8,156,948.4,156z"/>
            <ellipse transform="matrix(0.8205 -0.5716 0.5716 0.8205 92.2559 576.694)" class="st26" cx="964.5" cy="141.4" rx="4.8" ry="7"/>
	</g>
        <path class="st21" d="M664.1,644.2c25.8,6,51.9,10.7,77.6,17.1c12.8,3.2,25.5,6.8,37.9,11.2c2.9,1,5.8,2.1,8.6,3.2
		c1.4,0.6,2.9,1.1,4.3,1.7c1,0.4,3.6,1,4.4,1.9c1.2,1.6-2.4,5-3.3,6.1c-2.2,2.6-4.3,5.1-6.4,7.7c-31.8,38.4-60.9,79.1-84.7,123
		c-13.2,24.4-24.6,49.7-33.9,75.8c-1.3,3.6,4.5,5.2,5.8,1.6c17-48.2,41.8-93.3,70.7-135.2c14.6-21.1,30.2-41.5,46.6-61.3
		c2-2.5,4.1-4.9,6.1-7.3c1.9-2.2,4-4.4,4.9-7.2c0.8-2.6,0.5-5.4-1.5-7.3c-2-2-5.3-2.8-7.8-3.8c-12.5-5.1-25.4-9.2-38.4-12.8
		c-29.4-8.1-59.5-13.3-89.2-20.2C661.9,637.6,660.3,643.3,664.1,644.2L664.1,644.2z"/>
        <path class="st27" d="M570.4,503.8c0,0,9.7-10.3,13.2-17.4c3.5-7.2,7.6-20.6,7.6-20.6s-3,19.7-4.8,28.2
		c-2.5,11.9-5.4,17.6-5.4,17.6l-9.3-0.5c0,0-0.4-1.7-0.6-3.5C570.8,505.8,570.4,503.8,570.4,503.8z"/>
        <path class="st27" d="M750.2,507.4c0,0-8.4-11.3-11.1-18.8s-5.2-21.3-5.2-21.3s0.7,19.9,1.5,28.5c1.2,12.1,3.4,18.1,3.4,18.1
		l9.3,0.5c0,0,0.6-1.7,1-3.4C749.6,509.4,750.2,507.4,750.2,507.4z"/>
        <path class="st28" d="M758.7,638.9h-195c-6.5,0-12.2-4.6-13.5-11.1l-23-116.3c-1.7-8.5,4.8-16.4,13.5-16.4h248.7
		c9,0,15.6,8.5,13.3,17.2L772,628.7C770.4,634.7,764.9,638.9,758.7,638.9z"/>
        <g>
		<path class="st29" d="M685,571.1c-0.8,10.4-9.7,18.9-19.9,18.9c-10.2,0-19.1-8.4-20-18.8s8.1-18.9,19.9-18.9
			C676.9,552.2,685.8,560.7,685,571.1z"/>
	</g>
        <g>
		<g>
			<path class="st30" d="M882,247.9"/>
		</g>
	</g>
        <g>
		<path class="st31" d="M914.6,226.4c6.2-5.8,17.9-8.4,24.8-5.1c6.9,3.3,4.5,2.6,6.9,3.3c2.4,0.7,6.8-0.3,10.9,2.9
			c4.7,3.7,13.5,13.8,8.7,27c-4.1,11.2-17.2,20.8-33,18.1c-15.8-2.7-23.6-12.1-25.6-20.1C904.9,243.1,908.6,232,914.6,226.4z"/>
            <path class="st32" d="M947.7,228.3c0,0-0.5-15.7,9.4-19.3s25.9-8.5,25.2-7.5c-0.7,0.9-4.6,18-11.3,22.5
			C960.9,230.9,947.7,228.3,947.7,228.3z"/>
            <path class="st33" d="M937.3,230.4c0,0,1.5-7.6,1.8-12.2c0.6-9.3,0.4-13.9,0.4-13.9l7.9,1.3c0,0-1.1,10.9-2,14.9
			c-1.6,7.1-4,11.3-4,11.3s-1.5,1.2-2.8,0.5C937.2,231.5,937.3,230.4,937.3,230.4z"/>

            <ellipse transform="matrix(0.1962 -0.9806 0.9806 0.1962 557.3865 1089.7573)" class="st34" cx="943.4" cy="204.9" rx="2" ry="4"/>
	</g>
</g>
</svg>
