<svg version="1.1" id="Layer_1" xmlns="http://www.w3.org/2000/svg" xmlns:xlink="http://www.w3.org/1999/xlink" x="0px" y="0px"
     viewBox="0 0 1200 1200" style="enable-background:new 0 0 1200 1200;" xml:space="preserve">
<style type="text/css">
	.st0{fill:#FCB58A;}
	.st1{fill:#7A5734;}
	.st2{fill:#DEC7B2;}
	.st3{fill:#E8D4C1;}
	.st4{fill:#BA9C7E;}
	.st5{fill:#EBDBCD;}
	.st6{fill:#4C7378;}
	.st7{fill:#57848A;}
	.st8{fill:#689399;}
	.st9{fill:#D4BFA9;}
	.st10{fill:#110580;}
	.st11{fill:#001D80;}
	.st12{fill:#FFFFFF;}
	.st13{fill:none;}
	.st14{fill:#E3996D;}
	.st15{fill:#FFADB2;}
	.st16{fill:#AAACE3;}
	.st17{fill:#DADAED;}
	.st18{fill:#989BD7;}
	.st19{fill:#FF7A82;}
	.st20{fill:#2B31BA;}
	.st21{fill:#F8D7BC;}
	.st22{fill:#F8ECE2;}
	.st23{fill:#EBD0BE;}
	.st24{fill:#F8E7D8;}
	.st25{fill:#FF5856;}
	.st26{fill:#D7D7E6;}
	.st27{fill:#C7645D;}
	.st28{fill:#6B4D3A;}
	.st29{fill:#8A634B;}
	.st30{fill:#C5C6E3;}
	.st31{fill:#F8D0B3;}
	.st32{fill:#4E53BA;}
	.st33{fill:#DEBCA7;}
	.st34{fill:#BFA990;}
	.st35{fill:#F3E9E1;}
	.st36{fill:#E0E0E0;}
	.st37{fill:#F0A173;}
</style>
    <g>
	<path class="st0" d="M882.8,522.5l-31.2-0.1c-10.6-0.1-19.3-6.6-19.4-14.4v-2.7c-0.1-7.8,8.4-14.1,18.9-14l31.2,0.1
		c10.6,0.1,19.3,6.6,19.4,14.4v2.7C901.8,516.3,893.3,522.6,882.8,522.5z"/>
        <path class="st0" d="M341.7,520.7l-31.2-0.1c-10.6-0.1-19.3-6.6-19.4-14.4v-2.7c-0.1-7.8,8.4-14.1,18.9-14l31.2,0.1
		c10.6,0.1,19.3,6.6,19.4,14.4v2.7C360.7,514.5,352.2,520.8,341.7,520.7z"/>
        <path class="st0" d="M510.8,984c-1.2,15.9-2.4,31.8-3.7,47.7c-0.8,10.6,11.6,19.1,21.9,18.6c12.4-0.6,19.1-10.1,19.9-20.8
		c1.2-15.9,2.4-31.8,3.7-47.7c0.8-10.6-11.6-19.1-21.9-18.6C518.3,963.8,511.7,973.3,510.8,984L510.8,984z"/>
        <path class="st0" d="M663.1,989c2.5,15.7,5,31.5,7.5,47.2c1.7,10.5,15.7,15.9,25.6,13c11.9-3.5,16.2-14.2,14.5-24.8
		c-2.5-15.7-5-31.5-7.5-47.2c-1.7-10.5-15.7-15.9-25.6-13C665.7,967.7,661.4,978.4,663.1,989L663.1,989z"/>
        <g>
		<path class="st1" d="M301.9,1088.3c0-0.1,0-0.1,0-0.2C301.9,1088.2,301.9,1088.2,301.9,1088.3L301.9,1088.3z"/>
            <g>
			<g>
				<path class="st2" d="M342.5,965.3c-38.7,0-70.2-3.6-71.3-8l5.7,67.5c0,32,29.5,58.2,65.6,58.2l0,0c36.1,0,65.6-26.2,65.6-58.2
					l5.7-67.6l0,0C413,961.7,381.4,965.3,342.5,965.3z"/>
			</g>
                <path class="st3" d="M342.5,965.3c-39.3,0-71.2-3.7-71.3-8.2V957c0.3-4.5,32.1-8.2,71.3-8.2s71,3.7,71.3,8.2v0.1
				C413.6,961.6,381.8,965.3,342.5,965.3z"/>
                <path class="st4" d="M342.5,963.9c-33.1,0-60-3.1-60.1-7v-0.1c0.3-3.8,27.1-6.9,60.1-6.9c33.1,0,59.9,3.1,60.1,6.9v0.1
				C402.5,960.8,375.6,963.9,342.5,963.9z"/>
                <path class="st5" d="M273.6,986.2c4.6,0.1,9.1,1.9,13,5.7c7.3,7.1,11.9,18,17.8,26.3c2.2-4.5,4.2-9.1,5.9-13.8
				c2.1-5.6,9.6-10.8,15.5-6.3c6.3,4.9,11,10.4,15.1,17.2c3.5,5.9,6.4,12.9,11.9,17.3c5.3,4.3,11.3,5.5,13.5-2.1
				c1.9-6.7,1.2-13.8,3.4-20.5c1.8-5.6,4.6-11.3,10.3-13.8c6.7-2.9,13.2,0.7,19.2,3.7c3.6,1.8,7.1,3.7,10.5,5.8l-1.2,14.2
				c-6.1-3.8-13.6-8.5-19.9-9.4c-4-0.6-3.7,2.1-4,5.8c-0.2,3.3-0.2,6.7-0.4,10c-0.4,6.8-1.4,13.6-5.4,19.2
				c-8.6,12.1-24.7,11.5-36,3.8c-6.1-4.1-10.5-9.5-14.4-15.7c-1.3-2-2.5-4.1-3.8-6.2c-4.9,11.3-12.3,21.5-24.6,17.2
				c-7.6-2.7-12.6-11-17.1-17.2c-1.4-1.9-4-6.6-6.6-10.8L273.6,986.2z"/>
		</g>
            <path class="st6" d="M245.7,734.6c1.5-5.8,8.3-6.7,12.3-3.3c7.6,6.4,11.6,15.2,15.8,23.9c4.4,9.2,9.8,17.6,16.1,25.5
			c12.8,16.3,27,31.4,36.3,50.1c18.1,36.2,22.5,78.8,10,117.5c-0.4,1.2,2-4.9-1.9,5.8c-3.5,9.7-17.3,4.5-17.2-6.8
			c0.1-11.1-2.8-21.4-7.7-31.2c-9.7-19.5-21.9-37.7-31.4-57.3c-9.6-19.8-18-40.2-24.8-61.1C246.6,777.4,240.3,755.9,245.7,734.6z"/>
            <path class="st7" d="M334.7,621.1c4.9-8.9,19.2-2.9,16.4,6.9c-8.4,28.6-2.4,58.9,2.8,87.5c5.3,29.2,11.5,58.2,15.1,87.7
			c6.4,52.3,4.3,111.1-28.8,154.9c-3.6,4.7-11.1,0.8-8.1-4.8c3.3-6.2-5-47-8.7-60c-3.7-13.5-7.5-26.9-10.8-40.5
			c-6.6-26.5-12-53.5-13.4-80.8C296.2,718.9,309.3,667.5,334.7,621.1z"/>
            <path class="st8" d="M350.5,912c3.9-17.8,1-36.7,4.8-54.4c3.7-17.4,8.8-35,16.9-50.9c7.7-15.1,19.5-25.8,33.3-35.2
			c13-8.8,28.4-17.5,33-33.6c2.7-9.6,19-8.2,18,2.4c-2.2,21.6-11.3,40.6-21.9,59.3c-11.3,19.8-21.2,38.8-26.7,61.1
			c-9.5,38.2-17.7,87.7-61.2,99.4C341.4,961.5,342.1,950.1,350.5,912z"/>
	</g>
        <path class="st0" d="M341.2,525c31.7,16.2,63.8,25.5,99.7,24.8c33.6-0.7,66.3-9.7,85.2-39.8c12.5-20-19.1-38.4-31.6-18.5
		c-12.8,20.4-38.3,21.9-60.1,21.7c-27-0.2-50.9-7.6-74.7-19.8C338.8,482.7,320.2,514.3,341.2,525L341.2,525z"/>
        <path class="st0" d="M829.1,493.4c-23.9,12.2-47.7,19.6-74.7,19.8c-23,0.2-43.8-2.4-56.8-23.4c-12.4-20-44-1.6-31.6,18.5
		c8.1,13.1,19.1,24.6,32.9,31.5c15.5,7.8,31.8,9.6,48.9,10c35.9,0.7,68-8.6,99.7-24.8C868.5,514.3,850,482.7,829.1,493.4
		L829.1,493.4z"/>
        <polygon class="st9" points="939.9,642.3 927.4,710.4 872.7,665.2 	"/>
        <circle class="st5" cx="446.7" cy="114.4" r="36.7"/>
        <g>
		<path class="st10" d="M481.6,188.1c-0.3,0-0.6-0.2-0.8-0.5c-0.2-0.4,0-0.9,0.4-1.1l3.8-1.7l-1.7-3.8c-0.2-0.4,0-0.9,0.4-1.1
			s0.9,0,1.1,0.4l2.3,5.4l-5.4,2.3C481.8,188.1,481.7,188.1,481.6,188.1z"/>
            <path class="st10" d="M403.6,222.2c-0.3,0-0.6-0.2-0.8-0.5c-0.2-0.4,0-0.9,0.4-1.1l9.8-4.3c0.4-0.2,0.9,0,1.1,0.4s0,0.9-0.4,1.1
			l-9.8,4.3C403.8,222.2,403.7,222.2,403.6,222.2z M423.1,213.7c-0.3,0-0.6-0.2-0.8-0.5c-0.2-0.4,0-0.9,0.4-1.1l9.8-4.3
			c0.4-0.2,0.9,0,1.1,0.4c0.2,0.4,0,0.9-0.4,1.1l-9.8,4.3C423.3,213.7,423.2,213.7,423.1,213.7z M442.6,205.2
			c-0.3,0-0.6-0.2-0.8-0.5c-0.2-0.4,0-0.9,0.4-1.1l9.8-4.3c0.4-0.2,0.9,0,1.1,0.4c0.2,0.4,0,0.9-0.4,1.1l-9.8,4.3
			C442.8,205.2,442.7,205.2,442.6,205.2z M462.1,196.6c-0.3,0-0.6-0.2-0.8-0.5c-0.2-0.4,0-0.9,0.4-1.1l9.8-4.3
			c0.4-0.2,0.9,0,1.1,0.4c0.2,0.4,0,0.9-0.4,1.1l-9.8,4.3C462.3,196.6,462.2,196.6,462.1,196.6z"/>
            <path class="st10" d="M388.8,228.8l-2.3-5.4c-0.2-0.4,0-0.9,0.4-1.1s0.9,0,1.1,0.4l1.7,3.8l3.8-1.7c0.4-0.2,0.9,0,1.1,0.4
			s0,0.9-0.4,1.1L388.8,228.8z"/>
            <path class="st10" d="M383.3,214.9c-0.3,0-0.6-0.2-0.8-0.5l-4-9.1c-0.2-0.4,0-0.9,0.4-1.1s0.9,0,1.1,0.4l4,9.1
			c0.2,0.4,0,0.9-0.4,1.1C383.5,214.8,383.4,214.9,383.3,214.9z M375.3,196.7c-0.3,0-0.6-0.2-0.8-0.5l-4-9.1c-0.2-0.4,0-0.9,0.4-1.1
			s0.9,0,1.1,0.4l4,9.1c0.2,0.4,0,0.9-0.4,1.1C375.6,196.7,375.4,196.7,375.3,196.7z M367.4,178.6c-0.3,0-0.6-0.2-0.8-0.5l-4-9.1
			c-0.2-0.4,0-0.9,0.4-1.1s0.9,0,1.1,0.4l4,9.1c0.2,0.4,0,0.9-0.4,1.1C367.6,178.6,367.5,178.6,367.4,178.6z"/>
            <path class="st10" d="M359.5,160.5c-0.3,0-0.6-0.2-0.8-0.5l-2.3-5.4l5.4-2.3c0.4-0.2,0.9,0,1.1,0.4s0,0.9-0.4,1.1l-3.8,1.7
			l1.7,3.8c0.2,0.4,0,0.9-0.4,1.1C359.7,160.5,359.6,160.5,359.5,160.5z"/>
            <path class="st10" d="M371.8,149.7c-0.3,0-0.6-0.2-0.8-0.5c-0.2-0.4,0-0.9,0.4-1.1l9.8-4.3c0.4-0.2,0.9,0,1.1,0.4s0,0.9-0.4,1.1
			l-9.8,4.3C372.1,149.6,371.9,149.7,371.8,149.7z M391.3,141.1c-0.3,0-0.6-0.2-0.8-0.5c-0.2-0.4,0-0.9,0.4-1.1l9.8-4.3
			c0.4-0.2,0.9,0,1.1,0.4s0,0.9-0.4,1.1l-9.8,4.3C391.6,141.1,391.4,141.1,391.3,141.1z M410.8,132.6c-0.3,0-0.6-0.2-0.8-0.5
			c-0.2-0.4,0-0.9,0.4-1.1l9.8-4.3c0.4-0.2,0.9,0,1.1,0.4c0.2,0.4,0,0.9-0.4,1.1l-9.8,4.3C411.1,132.6,411,132.6,410.8,132.6z
			 M430.4,124.1c-0.3,0-0.6-0.2-0.8-0.5c-0.2-0.4,0-0.9,0.4-1.1l9.8-4.3c0.4-0.2,0.9,0,1.1,0.4c0.2,0.4,0,0.9-0.4,1.1l-9.8,4.3
			C430.6,124,430.5,124.1,430.4,124.1z"/>
            <path class="st10" d="M456.5,118.1c-0.3,0-0.6-0.2-0.8-0.5l-1.7-3.8l-3.8,1.7c-0.4,0.2-0.9,0-1.1-0.4c-0.2-0.4,0-0.9,0.4-1.1
			l5.4-2.3l2.3,5.4c0.2,0.4,0,0.9-0.4,1.1C456.7,118.1,456.6,118.1,456.5,118.1z"/>
            <path class="st10" d="M480.2,172.5c-0.3,0-0.6-0.2-0.8-0.5l-4-9.1c-0.2-0.4,0-0.9,0.4-1.1s0.9,0,1.1,0.4l4,9.1
			c0.2,0.4,0,0.9-0.4,1.1C480.5,172.4,480.3,172.5,480.2,172.5z M472.3,154.3c-0.3,0-0.6-0.2-0.8-0.5l-4-9.1c-0.2-0.4,0-0.9,0.4-1.1
			c0.4-0.2,0.9,0,1.1,0.4l4,9.1c0.2,0.4,0,0.9-0.4,1.1C472.5,154.3,472.4,154.3,472.3,154.3z M464.4,136.2c-0.3,0-0.6-0.2-0.8-0.5
			l-4-9.1c-0.2-0.4,0-0.9,0.4-1.1c0.4-0.2,0.9,0,1.1,0.4l4,9.1c0.2,0.4,0,0.9-0.4,1.1C464.6,136.2,464.5,136.2,464.4,136.2z"/>
	</g>
        <g>
		<path class="st10" d="M888.8,730.9l-4.5-1.7c-0.4-0.1-0.5-0.5-0.4-0.9s0.5-0.6,0.9-0.4l3.2,1.2l1.2-3.2c0.1-0.4,0.5-0.5,0.9-0.4
			s0.5,0.5,0.4,0.9L888.8,730.9z"/>
            <path class="st10" d="M877.4,726.6c-0.1,0-0.2,0-0.2,0l-7-2.6c-0.4-0.1-0.5-0.5-0.4-0.9s0.5-0.6,0.9-0.4l7,2.6
			c0.4,0.1,0.5,0.5,0.4,0.9C878,726.5,877.7,726.6,877.4,726.6z M863.4,721.4c-0.1,0-0.2,0-0.2,0l-7-2.6c-0.4-0.1-0.5-0.5-0.4-0.9
			s0.5-0.5,0.9-0.4l7,2.6c0.4,0.1,0.5,0.5,0.4,0.9C863.9,721.2,863.7,721.4,863.4,721.4z M849.3,716.2c-0.1,0-0.2,0-0.2,0l-7-2.6
			c-0.4-0.1-0.5-0.5-0.4-0.9s0.5-0.6,0.9-0.4l7,2.6c0.4,0.1,0.5,0.5,0.4,0.9C849.9,716,849.6,716.2,849.3,716.2z M835.2,710.9
			c-0.1,0-0.2,0-0.2,0l-7-2.6c-0.4-0.1-0.5-0.5-0.4-0.9s0.5-0.6,0.9-0.4l7,2.6c0.4,0.1,0.5,0.5,0.4,0.9
			C835.8,710.7,835.5,710.9,835.2,710.9z"/>
            <path class="st10" d="M821.2,705.7c-0.1,0-0.2,0-0.2,0l-4.5-1.7l1.7-4.5c0.1-0.4,0.5-0.6,0.9-0.4c0.4,0.1,0.5,0.5,0.4,0.9
			l-1.2,3.2l3.2,1.2c0.4,0.1,0.5,0.5,0.4,0.9C821.7,705.5,821.5,705.7,821.2,705.7z"/>
            <path class="st10" d="M821.4,693.3c-0.1,0-0.2,0-0.2,0c-0.4-0.1-0.5-0.5-0.4-0.9l2.6-7c0.1-0.4,0.5-0.6,0.9-0.4
			c0.4,0.1,0.5,0.5,0.4,0.9l-2.6,7C821.9,693.1,821.6,693.3,821.4,693.3z M826.6,679.3c-0.1,0-0.2,0-0.2,0c-0.4-0.1-0.5-0.5-0.4-0.9
			l2.6-7c0.1-0.4,0.5-0.6,0.9-0.4c0.4,0.1,0.5,0.5,0.4,0.9l-2.6,7C827.2,679.1,826.9,679.3,826.6,679.3z M831.8,665.2
			c-0.1,0-0.2,0-0.2,0c-0.4-0.1-0.5-0.5-0.4-0.9l2.6-7c0.1-0.4,0.5-0.6,0.9-0.4c0.4,0.1,0.5,0.5,0.4,0.9l-2.6,7
			C832.4,665,832.1,665.2,831.8,665.2z M837.1,651.1c-0.1,0-0.2,0-0.2,0c-0.4-0.1-0.5-0.5-0.4-0.9l2.6-7c0.1-0.4,0.5-0.6,0.9-0.4
			c0.4,0.1,0.5,0.5,0.4,0.9l-2.6,7C837.6,651,837.4,651.1,837.1,651.1z"/>
            <path class="st10" d="M842.3,637.1c-0.1,0-0.2,0-0.2,0c-0.4-0.1-0.5-0.5-0.4-0.9l1.7-4.5l4.5,1.7c0.4,0.1,0.5,0.5,0.4,0.9
			s-0.5,0.5-0.9,0.4l-3.2-1.2l-1.2,3.2C842.9,636.9,842.6,637.1,842.3,637.1z"/>
            <path class="st10" d="M903.9,655.6c-0.1,0-0.2,0-0.2,0l-7-2.6c-0.4-0.1-0.5-0.5-0.4-0.9s0.5-0.6,0.9-0.4l7,2.6
			c0.4,0.1,0.5,0.5,0.4,0.9C904.5,655.4,904.2,655.6,903.9,655.6z M889.8,650.4c-0.1,0-0.2,0-0.2,0l-7-2.6c-0.4-0.1-0.5-0.5-0.4-0.9
			s0.5-0.5,0.9-0.4l7,2.6c0.4,0.1,0.5,0.5,0.4,0.9C890.4,650.2,890.1,650.4,889.8,650.4z M875.8,645.1c-0.1,0-0.2,0-0.2,0l-7-2.6
			c-0.4-0.1-0.5-0.5-0.4-0.9s0.5-0.6,0.9-0.4l7,2.6c0.4,0.1,0.5,0.5,0.4,0.9C876.3,644.9,876.1,645.1,875.8,645.1z M861.7,639.9
			c-0.1,0-0.2,0-0.2,0l-7-2.6c-0.4-0.1-0.5-0.5-0.4-0.9s0.5-0.6,0.9-0.4l7,2.6c0.4,0.1,0.5,0.5,0.4,0.9
			C862.3,639.7,862,639.9,861.7,639.9z"/>
            <path class="st10" d="M913.4,663.5c-0.1,0-0.2,0-0.2,0c-0.4-0.1-0.5-0.5-0.4-0.9l1.2-3.2l-3.2-1.2c-0.4-0.1-0.5-0.5-0.4-0.9
			s0.5-0.6,0.9-0.4l4.5,1.7l-1.7,4.5C913.9,663.4,913.7,663.5,913.4,663.5z"/>
            <path class="st10" d="M892.4,719.8c-0.1,0-0.2,0-0.2,0c-0.4-0.1-0.5-0.5-0.4-0.9l2.6-7c0.1-0.4,0.5-0.6,0.9-0.4
			c0.4,0.1,0.5,0.5,0.4,0.9l-2.6,7C893,719.6,892.7,719.8,892.4,719.8z M897.6,705.7c-0.1,0-0.2,0-0.2,0c-0.4-0.1-0.5-0.5-0.4-0.9
			l2.6-7c0.1-0.4,0.5-0.6,0.9-0.4c0.4,0.1,0.5,0.5,0.4,0.9l-2.6,7C898.2,705.6,897.9,705.7,897.6,705.7z M902.9,691.7
			c-0.1,0-0.2,0-0.2,0c-0.4-0.1-0.5-0.5-0.4-0.9l2.6-7c0.1-0.4,0.5-0.6,0.9-0.4c0.4,0.1,0.5,0.5,0.4,0.9l-2.6,7
			C903.4,691.5,903.2,691.7,902.9,691.7z M908.1,677.6c-0.1,0-0.2,0-0.2,0c-0.4-0.1-0.5-0.5-0.4-0.9l2.6-7c0.1-0.4,0.5-0.6,0.9-0.4
			c0.4,0.1,0.5,0.5,0.4,0.9l-2.6,7C908.7,677.4,908.4,677.6,908.1,677.6z"/>
	</g>
        <path class="st10" d="M697.6,397.1c0,0-17.7-56.3-23.6-80.1c-9.2-36.7-34.2-58.8-69.5-58.8c-35.8,0-61,22.5-70.9,59
		c-10.1,37.6-23.4,76.9-23.4,76.9c-1.6,5,0.9,10.3,5.7,12.3c11.4,4.5,35.2,12.5,88.5,11.9c47.6-0.6,72.2-7.3,84.6-8.6
		C695.2,409,699.2,403,697.6,397.1z"/>
        <path class="st0" d="M624.8,379.3h-40.7v69.3c0,5.8,4.7,10.5,10.5,10.5h19.7c5.8,0,10.5-4.7,10.5-10.5V379.3z"/>
        <path class="st11" d="M577,282.9L577,282.9L577,282.9z"/>
        <circle class="st10" cx="603.9" cy="227.4" r="25.4"/>
        <path class="st12" d="M544.1,387.5c-6.6,0-6.8-22.2-6.8-24.7s0.2-24.7,6.8-24.7s6.8,22.2,6.8,24.7
		C550.8,365.3,550.6,387.5,544.1,387.5z M544.1,341.9c-1.2,1.6-3.1,8.7-3.1,20.8s1.9,19.2,3.1,20.8c1.2-1.6,3.1-8.7,3.1-20.8
		S545.3,343.6,544.1,341.9z"/>
        <path class="st12" d="M663.6,387.5c-6.6,0-6.8-22.2-6.8-24.7s0.2-24.7,6.8-24.7s6.8,22.2,6.8,24.7
		C670.3,365.3,670.1,387.5,663.6,387.5z M663.6,341.9c-1.2,1.6-3.1,8.7-3.1,20.8s1.9,19.2,3.1,20.8c1.2-1.6,3.1-8.7,3.1-20.8
		S664.8,343.6,663.6,341.9z"/>
        <circle class="st0" cx="604.5" cy="327.1" r="67.3"/>
        <path class="st10" d="M535.8,332c0.1,1.1,0.2,2.2,0.3,3.2c0,0.1,0,0.3,0,0.4c0.1,1.2,0.3,2.3,0.5,3.5v0.1c0.2,1.2,0.5,2.4,0.7,3.7
		c4.5-18.6,21.2-32.3,41.2-32.3c2.5,0,4.9,0.2,7.3,0.6c1.8,0.4,3.6,0.6,5.5,0.6c12.5,0,22.9-9.5,24.2-21.7c0,0,0.1,0,0.1-0.1
		c-0.2,1.3-0.3,2.6-0.3,3.9c0,14.3,11.6,25.9,25.9,25.9h0.1c14,2.8,25.2,13.2,29.3,26.7l0,0c0.9-3,1.5-6.1,2-9.2c0-0.1,0-0.2,0-0.4
		c0.2-1.3,0.3-2.6,0.4-4c0-0.3,0.1-0.7,0.1-1c0.1-1.5,0.2-3,0.2-4.5c0-1.3,0-2.5-0.1-3.7c0-0.4-0.1-0.7-0.1-1.1
		c-0.1-0.9-0.1-1.8-0.2-2.6c0-0.4-0.1-0.8-0.2-1.2c-0.1-0.8-0.2-1.7-0.3-2.5c-0.1-0.4-0.1-0.8-0.2-1.2c-0.2-0.8-0.3-1.7-0.5-2.5
		c-0.1-0.4-0.2-0.7-0.2-1.1c-0.2-0.9-0.4-1.7-0.7-2.6c-0.1-0.3-0.2-0.6-0.3-0.9c-0.3-0.9-0.6-1.8-0.9-2.7c-0.1-0.2-0.2-0.5-0.2-0.7
		c-0.3-1-0.7-2-1.1-2.9c-0.1-0.1-0.1-0.3-0.2-0.4c-0.4-1.1-0.9-2.2-1.4-3.3l0,0c-5.9-12.6-15.6-23.2-27.6-30.2l0,0
		c-3.8-2.2-7.8-4.1-12-5.5c-0.1,0-0.3-0.1-0.4-0.1c-1.2-0.4-2.4-0.8-3.7-1.1c-0.2-0.1-0.4-0.1-0.6-0.2c-2.7-0.7-5.5-1.3-8.3-1.7
		c-0.4-0.1-0.7-0.1-1.1-0.1c-1.1-0.1-2.1-0.2-3.2-0.3c-0.4,0-0.8-0.1-1.2-0.1c-1.4-0.1-2.8-0.1-4.3-0.1c-38,0-68.8,30.8-68.8,68.8
		c0,1.3,0,2.5,0.1,3.8C535.8,331.6,535.8,331.8,535.8,332z"/>
        <path class="st12" d="M670.1,439c-17.1-10.2-36.7-13.7-45.3-15c-2.7,11.2-8.4,17.4-21,17.4c-12.8,0-17.2-6.4-19.6-17.9
		c-2.6,0.1-10.5,1.7-12.3,2.1c-23.2,4.5-32.6,10.5-44.3,19.2c-17.9,13.4-35.4,41.2-39.2,47.5c-0.5,0.8-0.5,1.8,0,2.6
		c2.1,3.2,7.9,11.5,16.2,16.9c11.6,7.7,25.4,11.9,25.4,11.9s5.6-10.2,7.2-14.1c2.2-5.1,8-22.3,8-22.3s-5.3,11.5-5.7,23.4
		c-0.3,10.9,3.4,23.2,3.1,30.4c-0.8,16.5-5.7,30.7-7.4,37.1c-0.4,1.5,0.5,3.1,2.1,3.4c8.9,2,35.5,8,62.5,7.9
		c35.1,0,59.2-3.8,67.7-5.1c1.6-0.3,2.6-1.8,2.2-3.4c-1.4-5.6-3.8-15.2-6.2-36.6c-1.9-16.8,0.1-20,0-31.8c0-8.7-3.6-26.1-3.6-26.1
		l3.4,33.2c0,0,12.3,0.6,29.9-7.1c6.1-2.7,13.8-9.6,17-12.7c0.9-0.9,1.2-2.3,0.6-3.4C706.4,487.3,686.9,449,670.1,439z"/>
        <path class="st13" d="M584.2,391.2v-11.9h40.7v11.9c25.9-8.2,45.1-31.7,46.9-59.9c-2.2-35.2-31.4-63.1-67.2-63.1
		c-35.7,0-65,27.9-67.2,63.1C539.1,359.5,558.2,383,584.2,391.2z"/>
        <path class="st14" d="M604.5,394.4c-7.1,0-13.9-1.1-20.3-3.1v12.6c6.4,2,13.4,2.1,20.6,1.4c9.5-0.9,13.6-2.7,20-5.5v-8.5
		C618.4,393.3,611.6,394.4,604.5,394.4z"/>
        <path class="st0" d="M546.7,583.8c0,0,33.2,5.6,56.4,5.6c24.6,0,55-3.5,55-3.5s2.7,17.5,3.8,21.3s-20.1,11.4-57.9,10.6
		c-49.5-0.9-61.3-8-61.3-10C542.6,606.4,546.7,583.8,546.7,583.8z"/>
        <g>
		<path class="st15" d="M674,618.7c30.7,61,45.1,99.3,53.3,181.1c6.9,68.8-1.8,160.7-3.2,213.2c0,1.6-0.4,3.2-1.3,4.6
			c-2.5,4-18.5,7.3-22.9,7.6c-22.2,1.5-42.8-1.7-44.8-9.5c-11.4-46.2-20.3-94.9-26.6-143.2c-5.2-40-11.4-84.6-14.9-117.5
			c-0.3-2.7-4.3-2.8-4.6,0c-0.6,5.5-1.3,36.2-2.1,45.3c-2.2,25.8-6.5,51.2-10.7,76.8c-6.6,40.6-22.3,97.9-34.2,136.5
			c-0.8,2.6-3.5,6.2-6.5,6.7c-5.3,0.8-18,1.9-24.7,1.4c-9.9-0.8-30.7-3.7-31.8-8.6c-15-62.5-15.5-183,6.2-308.3
			c5.2-29.8,17.2-63.1,28.2-83.1c0,0,35.5,7,68.1,6.9C640.8,628.4,674,618.7,674,618.7z"/>
	</g>
        <g>
		<path class="st16" d="M400.5,248.2L356.4,234c-2.6-0.9-4.1-3.7-3.3-6.4l9.3-28.8c0.9-2.6,3.7-4.1,6.4-3.3l44.1,14.2
			c2.6,0.9,4.1,3.7,3.3,6.4l-9.3,28.8C406,247.6,403.1,249.1,400.5,248.2z"/>
            <path class="st16" d="M421,224.1c-1.8,0-3.4,1.2-3.9,2.9l-1.6,4.8l-1.6,4.8c-0.5,1.7,0,3.6,1.5,4.6l11.9,9
			c2.3,1.8,5.7,0.7,6.5-2.1l3.1-9.5l3.1-9.5c0.9-2.8-1.2-5.6-4.1-5.5L421,224.1z"/>
	</g>
        <path class="st15" d="M542.6,607.9c0,0-3.9,0.9-6.2,4.9s-2.9,8.8-2.9,8.8s25.7,7.6,74.3,8.9c47.1,1.2,66.2-11.8,66.2-11.8
		s-1.7-5.3-5.7-7.6s-6.6-3.9-6.6-3.9s-14.7,13.1-59.6,9.9C557.3,613.8,542.6,607.9,542.6,607.9z"/>
        <g>
		<g>

				<rect x="326.1" y="319.2" transform="matrix(0.9973 -7.276879e-02 7.276879e-02 0.9973 -25.7354 25.2598)" class="st17" width="15.4" height="93.3"/>

            <rect x="323.6" y="332.2" transform="matrix(0.9973 -7.276879e-02 7.276879e-02 0.9973 -23.3473 24.6229)" class="st18" width="5.3" height="1.1"/>

            <rect x="324.4" y="342.6" transform="matrix(0.9973 -7.276879e-02 7.276879e-02 0.9973 -24.1017 24.7086)" class="st18" width="5.3" height="1.1"/>

            <rect x="325.2" y="353" transform="matrix(0.9973 -7.276879e-02 7.276879e-02 0.9973 -24.8561 24.7943)" class="st18" width="5.3" height="1.1"/>

            <rect x="325.9" y="363.4" transform="matrix(0.9973 -7.276879e-02 7.276879e-02 0.9973 -25.6113 24.8727)" class="st18" width="5.3" height="1.1"/>

            <rect x="326.7" y="373.9" transform="matrix(0.9973 -7.276879e-02 7.276879e-02 0.9973 -26.373 24.9592)" class="st18" width="5.3" height="1.1"/>

            <rect x="327.4" y="384.3" transform="matrix(0.9973 -7.276879e-02 7.276879e-02 0.9973 -27.1282 25.0376)" class="st18" width="5.3" height="1.1"/>

            <rect x="328.2" y="394.7" transform="matrix(0.9973 -7.276879e-02 7.276879e-02 0.9973 -27.8827 25.1233)" class="st18" width="5.3" height="1.1"/>
		</g>
            <g>

				<rect x="319" y="351.1" transform="matrix(0.985 -0.1724 0.1724 0.985 -62.1081 61.6682)" class="st15" width="9.9" height="74.6"/>
                <polygon class="st5" points="322.4,350.8 312.6,352.5 314.2,338.5 316.2,338.1 			"/>
                <polygon class="st19" points="314.8,344.9 316.2,344 317.3,344.1 318.8,343.4 316.2,338.1 314.2,338.5 313.5,344.1 			"/>
		</g>
            <path class="st20" d="M345.1,410.6L345.1,410.6c-1.7-0.3-2.8-1.9-2.6-3.6l7.6-49.1c0.1-0.4,0.2-0.8,0.3-1.2l4.4-12.4
			c0.6-1.4,2.1-2.3,3.6-2l0.7,0.1c1.5,0.3,2.6,1.7,2.6,3.2l-1,13.1c0,0.4-0.1,0.8-0.2,1.3l-11.7,48.2
			C348.4,409.9,346.8,411,345.1,410.6z"/>
            <g>
			<g>
				<rect x="338.9" y="444.2" class="st21" width="63.7" height="21.3"/>
                <polygon class="st19" points="405.3,442.7 405.3,444.3 338.8,444.3 338.8,465.6 405.3,465.6 405.3,467.2 268.6,467.2
					268.6,442.7 				"/>
			</g>
                <g>
				<path class="st22" d="M318.9,503.7H413v-34.4h-94.1c-4.7,0-8.4,3.8-8.4,8.4v17.5C310.4,499.9,314.2,503.7,318.9,503.7z"/>
                    <path class="st20" d="M263.2,467.2h154c0.6,0,1.1,0.5,1.1,1.1l0,0c0,0.6-0.5,1.1-1.1,1.1h-18.9l0,0h-70.6
					c-9.5,0-17.2,7.7-17.2,17.2l0,0c0,9.5,7.7,17.2,17.2,17.2h87.2l0,0h2.3c0.6,0,1.1,0.5,1.1,1.1l0,0c0,0.6-0.5,1.1-1.1,1.1h-154
					c-9.5,0-17.2-7.7-17.2-17.2v-4.3C246,474.9,253.7,467.2,263.2,467.2z"/>
                    <rect x="323.7" y="474.9" class="st23" width="89.3" height="1.2"/>
                    <rect x="317.3" y="489" class="st23" width="95.7" height="1.2"/>
                    <rect x="329" y="496.4" class="st23" width="84" height="1.2"/>
                    <rect x="320.2" y="482.4" class="st23" width="92.9" height="1.2"/>
			</g>
                <g>
				<g>
					<path class="st24" d="M340,441.8h-58.6v-12.3H340c1.7,0,3,1.3,3,3v6.2C343,440.4,341.7,441.8,340,441.8z"/>
                    <path class="st25" d="M376.4,428.6h-97.5c-0.2,0-0.4,0.2-0.4,0.4l0,0c0,0.2,0.2,0.4,0.4,0.4h57.8c3.4,0,6.1,2.8,6.1,6.1l0,0
						c0,3.4-2.8,6.1-6.1,6.1h-57.8c-0.2,0-0.4,0.2-0.4,0.4l0,0c0,0.2,0.2,0.4,0.4,0.4h97.5c3.4,0,6.1-2.8,6.1-6.1v-1.8
						C382.6,431.3,379.8,428.6,376.4,428.6z"/>
				</g>
			</g>
		</g>
            <path class="st16" d="M315.6,377.1h42.8c1.1,0,2,1,1.8,2.1l-6.2,49.4h-34.3l-6-49.4C313.6,378.1,314.5,377.1,315.6,377.1z"/>
            <path class="st26" d="M359.2,342.1l-0.7-0.1c-1.6-0.3-3.1,0.5-3.7,2l-4.5,12.6c-0.1,0.2-0.1,0.3-0.1,0.5c1.4,1.2,3.2,2.1,5.3,2.4
			c1.9,0.3,3.7,0.2,5.2-0.3c0-0.2,0.1-0.3,0.1-0.5l1-13.3C361.9,343.8,360.8,342.5,359.2,342.1z"/>
            <path class="st27" d="M359.4,323.1c0.4-0.8,1.6-0.8,2,0c0.7,1.4,1.6,3.1,2.3,4.3c1.2,2.1,1.8,7,1.2,9.3c-0.7,2.8-2.7,5.7-3.3,6.6
			c-0.1,0.2-0.3,0.3-0.5,0.4c-0.6,0.2-1.7,0.4-3.2,0.1c-2.1-0.5-2.3-1.9-2.3-1.9s-1.2-4.6-1-7.4s1.7-6.4,2.4-7
			C357.3,327,358.5,324.8,359.4,323.1z"/>
	</g>
        <path class="st27" d="M525.1,1038.2c14,0.2,23.1-4.2,23.1-4.2s5.7,12.1,6.8,18.4s4.4,27.6-0.5,31.6c-5.3,4.4-4.3,3.2-11.1,6.1
		c-9.5,4-13.6,2.1-26.5,8.7c-4.8,2.5-25.6,21.8-46.6,23.6c-17.7,1.5-22.4-7-24.5-11.7s1.7-13.8,14.2-23.1
		c15.2-11.3,30.4-27.5,33.5-31.6c9.4-12.6,13.6-24.2,13.6-24.2S510.7,1037.9,525.1,1038.2z"/>
        <path class="st27" d="M692.8,1039.6c-14,0.2-22.4-4.4-22.4-4.4s-6.3,9.2-8.5,21c-1.1,6.3-3.4,25.2,1.5,29.3
		c5.3,4.4,4.3,3.2,11.1,6.1c9.5,4,13.6,2.1,26.5,8.7c4.8,2.5,25.5,22,46.6,23.6c12.8,1,22.4-7,24.5-11.7s2.3-14.3-13.5-24.8
		s-34.4-27.2-36.8-31.8c-3.7-7-11.1-22.5-11.1-22.5S707.2,1039.3,692.8,1039.6z"/>
        <g>
		<path class="st16" d="M874.4,352.5L874.4,352.5c-10,2.7-20.3-3.2-23-13.1l-4.8-17.6c-2.7-10,3.2-20.3,13.1-23l0,0
			c10-2.7,20.3,3.2,23,13.1l4.8,17.6C890.2,339.4,884.4,349.7,874.4,352.5z"/>
            <path class="st16" d="M877.3,363.3c-16.4,4.5-33.3-5.2-37.8-21.6l-0.6-2.2c-0.5-1.9,0.6-3.9,2.5-4.4s3.9,0.6,4.4,2.5l0.6,2.2
			c3.4,12.5,16.4,20,29,16.5c12.5-3.4,20-16.4,16.5-29l-0.6-2.2c-0.5-1.9,0.6-3.9,2.5-4.4s3.9,0.6,4.4,2.5l0.6,2.2
			C903.4,341.9,893.7,358.8,877.3,363.3z"/>
            <path class="st16" d="M898.8,368c1.8-0.5,2.4-2.6,1.2-4c-5.9-6.7-15.3-9.9-24.4-7.4c-9.2,2.5-15.6,10-17.3,18.8
			c-0.3,1.8,1.3,3.3,3.1,2.9L898.8,368z"/>
	</g>
        <g>
		<path class="st25" d="M783.5,457.2c3.6-7.6,13.5-14.1,21-13.5s5.1,0.8,7.5,0.6s6.1-2.7,11.1-1.2c5.6,1.7,17.4,7.9,17.6,21.7
			c0.2,11.8-8.4,25.3-24,28.4s-26.1-2.7-30.8-9.4C780.5,476.1,780,464.5,783.5,457.2z"/>
            <path class="st6" d="M807.8,453.5c0,0-1.2-17.7,6-25.2c8-8.3,18.5-16.1,17.7-11c-0.2,1.2,1.5,18.3-3.3,24.7
			C820.9,451.8,807.8,453.5,807.8,453.5z"/>
            <path class="st28" d="M805.9,452.8c0,0-1.4-7.6-2.7-11.9c-2.8-8.8-4.6-13-4.6-13l7.8-1.7c0,0,2.9,10.4,3.4,14.4
			c1,7.1,0.4,11.8,0.4,11.8s-1,1.6-2.4,1.4C806.2,453.8,805.9,452.8,805.9,452.8z"/>

            <ellipse transform="matrix(0.9852 -0.1715 0.1715 0.9852 -61.3543 143.9435)" class="st29" cx="802.4" cy="427.1" rx="4" ry="1.9"/>
	</g>
        <path class="st30" d="M953.5,505.8h-182c-1.6,0-2.9-1.3-2.9-2.9v-7.2c0-1.6,1.3-2.9,2.9-2.9h181.9c1.6,0,2.9,1.3,2.9,2.9v7.2
		C956.3,504.5,955,505.8,953.5,505.8z"/>
        <g>
		<path class="st31" d="M861.1,490.7h-39.8v-14h39.8c1.1,0,1.9,0.9,1.9,1.9v10.1C863.1,489.8,862.2,490.7,861.1,490.7z"/>
            <path class="st19" d="M932.8,474.5h-79h-34.7H818c-0.6,0-1.1,0.5-1.1,1.1s0.5,1.1,1.1,1.1h3.3l0,0h37.8c2.2,0,3.9,1.8,3.9,3.9v6.2
			c0,2.2-1.8,3.9-3.9,3.9h-8.6l0,0h-32.2c-0.6,0-1.1,0.5-1.1,1.1s0.5,1.1,1.1,1.1h0.8H854h78.8c2.2,0,3.9-1.8,3.9-3.9v-10.5
			C936.7,476.2,935,474.5,932.8,474.5z"/>
            <path class="st24" d="M880.5,473.5h-64.3V460h64.3c1.9,0,3.4,1.5,3.4,3.4v6.7C883.9,472,882.4,473.5,880.5,473.5z"/>
            <path class="st32" d="M920.7,459H813.4c-0.3,0-0.5,0.2-0.5,0.5l0,0c0,0.3,0.2,0.5,0.5,0.5H877c3.7,0,6.8,3,6.8,6.8l0,0
			c0,3.7-3,6.8-6.8,6.8h-63.6c-0.3,0-0.5,0.2-0.5,0.5l0,0c0,0.3,0.2,0.5,0.5,0.5h107.2c3.7,0,6.8-3,6.8-6.8v-2
			C927.4,462,924.4,459,920.7,459z"/>
            <path class="st33" d="M865.1,469.5h-49v-0.6h49c0.2,0,0.3,0.1,0.3,0.3l0,0C865.5,469.4,865.3,469.5,865.1,469.5z"/>
            <path class="st33" d="M876.4,465.1h-60.2v-0.6h60.2c0.2,0,0.3,0.1,0.3,0.3l0,0C876.7,464.9,876.6,465.1,876.4,465.1z"/>
	</g>
        <g>

			<ellipse transform="matrix(0.4566 -0.8897 0.8897 0.4566 194.6473 820.8973)" class="st9" cx="769.3" cy="251.1" rx="8" ry="20.9"/>
            <g>
			<g>
				<path class="st5" d="M754.5,235c3.8-6.9,7-14,8.5-21.7c3.3-16.6-1.2-35.9,9.4-49c7.6-9.5,21.2-12.4,33.2-10.7
					c14.7,2.1,28.7,10.7,35.4,23.9s5,30.8-5.6,41.1c-8.9,8.7-22.2,11.5-31.5,19.7c-5.2,4.6-8.9,10.7-12.8,16.5l-1.3,1.8
					C761.4,253.5,754.5,235,754.5,235z"/>
			</g>
		</g>
            <path class="st34" d="M804.7,209.3c-1.2-4.4-5-4.2-8.4-2.7c-0.8-2.4-2.1-5.5-4.6-6.5c-2.8-1.1-6,0.8-8.2,2.5
			c-4.8,3.7-8.5,9.1-10.7,14.7s-3.3,11.6-5.3,17.3c-0.8,2.3,2.9,3.3,3.7,1c2.5-7.2,3.5-15.1,7.5-21.7c2.2-3.7,5.4-8,9.5-9.7
			c1.3-0.6,2.2-0.7,3.1,0.6c0.7,1,1.2,2.2,1.5,3.3c0,0.1,0.1,0.2,0.1,0.3c-0.5,0.3-0.9,0.6-1.3,0.9c-3.9,2.9-9.1,8.1-9,13.4
			c0,2.4,1.5,4.4,4,4.6c2.7,0.2,5.4-1.9,7.1-3.9c3.2-3.7,4.2-8.5,3.5-13.2c0.9-0.5,1.7-0.8,2.5-0.9c2.4-0.2,1.3,3.7,1,5
			c-1.2,4.3-3.7,8.1-6.1,11.8c-1.8,2.8-3.4,5.8-5.6,8.3c-2.4,2.8-5.6,4.7-8.6,6.7c-2.1,1.3-0.2,4.6,1.9,3.3c3.6-2.3,7.3-4.6,10-7.9
			c2.9-3.5,5.3-7.5,7.6-11.4C802.4,220.8,806.1,214.4,804.7,209.3z M793.3,215.8c-0.5,2-1.4,3.9-2.8,5.4c-0.8,0.9-4.5,3.9-4.2,1.1
			c0.2-1.7,1.5-3.5,2.5-4.9c1.3-1.8,3-3.4,4.8-4.8C793.6,213.6,793.6,214.7,793.3,215.8z"/>
            <path class="st34" d="M765.7,258.2c-9.3-4.7-15.6-11.3-15.3-15.4l0,0l-4.7,16.6c-1.6,3.2,3.8,9.2,12.1,13.5s16.4,5.2,18,2
			c0.1-0.2,0.1-0.3,0.2-0.5l0,0l11.1-12.7l0,0C784,264.3,775,263,765.7,258.2z"/>
	</g>
        <g>
		<path class="st10" d="M662.4,130.7c-0.1,0-0.2,0-0.3-0.1c-0.4-0.2-0.6-0.7-0.4-1.1c0.7-1.6,1.5-3.1,2.6-4.5
			c0.3-0.4,0.8-0.5,1.2-0.2s0.5,0.8,0.2,1.2c-1,1.3-1.8,2.7-2.4,4.2C663.1,130.5,662.8,130.7,662.4,130.7z"/>
            <path class="st10" d="M797.5,182.2c-0.1,0-0.2,0-0.3-0.1l-1.2-0.4c-2.7-1-5.5-2.1-8.5-3.3c-0.4-0.2-0.6-0.7-0.5-1.1
			c0.2-0.4,0.7-0.6,1.1-0.5c2.9,1.2,5.7,2.3,8.4,3.3l1.2,0.4c0.4,0.2,0.7,0.7,0.5,1.1C798.2,182,797.9,182.2,797.5,182.2z
			 M778.5,174.2c-0.1,0-0.3,0-0.4-0.1c-3.3-1.7-6.2-3.5-9-5.4c-0.4-0.3-0.5-0.8-0.2-1.2c0.3-0.4,0.8-0.5,1.2-0.2
			c2.7,1.9,5.5,3.6,8.8,5.2c0.4,0.2,0.6,0.7,0.4,1.1C779.1,174,778.8,174.2,778.5,174.2z M761.7,162.3c-0.2,0-0.4-0.1-0.6-0.3
			c-2.5-2.5-4.7-5.3-6.6-8.2c-0.3-0.4-0.1-0.9,0.3-1.2c0.4-0.3,0.9-0.1,1.2,0.3c1.8,2.8,3.9,5.4,6.4,7.9c0.3,0.3,0.3,0.9,0,1.2
			C762.1,162.2,761.9,162.3,761.7,162.3z M750.6,145c-0.3,0-0.7-0.2-0.8-0.6c-1.2-3.3-2.1-6.7-2.6-10.2c-0.1-0.5,0.3-0.9,0.7-1
			c0.5-0.1,0.9,0.3,1,0.7c0.5,3.3,1.3,6.6,2.5,9.8c0.2,0.4-0.1,0.9-0.5,1.1C750.8,145,750.7,145,750.6,145z M756.2,134.1
			c-1.9,0-3.8-0.1-5.7-0.4c-0.5-0.1-0.8-0.5-0.7-1s0.5-0.8,1-0.7c1.8,0.3,3.7,0.4,5.5,0.4l0,0c1.6,0,3.1-0.1,4.6-0.3
			c0.5-0.1,0.9,0.3,1,0.7s-0.3,0.9-0.7,1C759.4,134,757.8,134.1,756.2,134.1L756.2,134.1z M740.6,131.1c-0.1,0-0.2,0-0.3,0
			c-2.9-1-5.8-2.3-9.6-4c-0.4-0.2-0.6-0.7-0.4-1.1s0.7-0.6,1.1-0.4c3.7,1.7,6.6,3,9.5,4c0.4,0.2,0.7,0.6,0.5,1.1
			C741.3,130.9,740.9,131.1,740.6,131.1z M770.7,130.7c-0.3,0-0.6-0.2-0.7-0.4c-0.2-0.4-0.1-0.9,0.3-1.2c1.6-0.9,3-1.9,4.3-3.1
			c1.1-1,2.1-2.2,2.9-3.6c0.2-0.4,0.8-0.5,1.2-0.3s0.5,0.8,0.3,1.2c-0.9,1.5-2,2.8-3.2,3.9c-1.4,1.3-2.9,2.4-4.6,3.3
			C771,130.7,770.8,130.7,770.7,130.7z M747.9,124.7L747.9,124.7c-0.6-0.1-0.9-0.5-0.8-0.9c0.4-3.7,1.4-7.1,2.9-10.2
			c0.2-0.4,0.7-0.6,1.1-0.4c0.4,0.2,0.6,0.7,0.4,1.1c-1.4,2.9-2.4,6.1-2.8,9.6C748.7,124.4,748.3,124.7,747.9,124.7z M721.7,122.7
			c-0.1,0-0.2,0-0.4-0.1c-1.1-0.5-2.2-1-3.3-1.5c-2.2-1-4.2-1.8-6.1-2.6c-0.4-0.2-0.7-0.7-0.5-1.1c0.2-0.4,0.7-0.7,1.1-0.5
			c2,0.8,4,1.6,6.2,2.6c1.1,0.5,2.2,1,3.3,1.5c0.4,0.2,0.6,0.7,0.4,1.1C722.3,122.5,722,122.7,721.7,122.7z M672.4,119.4
			c-0.3,0-0.6-0.1-0.7-0.4c-0.3-0.4-0.1-0.9,0.3-1.2c2.9-1.9,6.2-3.3,9.7-4.2c0.5-0.1,0.9,0.2,1,0.6c0.1,0.5-0.2,0.9-0.6,1
			c-3.3,0.9-6.4,2.2-9.2,4C672.8,119.4,672.6,119.4,672.4,119.4z M702.4,115.5c-0.1,0-0.1,0-0.2,0c-3.5-0.8-6.9-1.2-10.1-1.3
			c-0.5,0-0.8-0.4-0.8-0.9s0.4-0.8,0.8-0.8l0,0c3.3,0.1,6.8,0.5,10.4,1.3c0.5,0.1,0.7,0.6,0.6,1
			C703.1,115.3,702.8,115.5,702.4,115.5z M780.8,113.9c-0.5,0-0.8-0.4-0.8-0.8c-0.1-2.9-1.2-5.4-2.9-7.2c-0.4-0.4-0.8-0.8-1.2-1.1
			s-0.4-0.8-0.2-1.2c0.3-0.4,0.8-0.4,1.2-0.2c0.5,0.4,1,0.8,1.4,1.3c2.1,2.2,3.3,5,3.4,8.3C781.7,113.5,781.3,113.9,780.8,113.9
			C780.9,113.9,780.8,113.9,780.8,113.9z M757.1,106.8c-0.3,0-0.5-0.1-0.7-0.3c-0.3-0.4-0.2-0.9,0.2-1.2c2.9-2.2,6.4-3.7,9.8-4.2
			c0.5-0.1,0.9,0.3,1,0.7c0.1,0.5-0.3,0.9-0.7,1c-3.2,0.4-6.4,1.8-9,3.9C757.5,106.8,757.3,106.8,757.1,106.8z"/>
            <path class="st10" d="M811.3,188.9c-0.2,0-0.4-0.1-0.6-0.2c-0.9-0.8-2.2-1.7-4-2.6c-0.4-0.2-0.6-0.7-0.4-1.1
			c0.2-0.4,0.7-0.6,1.1-0.4c1.9,1,3.3,1.9,4.4,2.8c0.3,0.3,0.4,0.9,0.1,1.2C811.8,188.8,811.5,188.9,811.3,188.9z"/>
	</g>
        <g>
		<path class="st35" d="M803.8,81.4c5.6,19,5.1,36.6,4.6,56.1c-0.1,5.4,17.5,3.7,18.7-1c4.7-18.8,1.4-39.1-4.6-57.2
			C820.6,73.4,802.3,76.3,803.8,81.4L803.8,81.4z"/>
            <path class="st35" d="M878.9,118.8c-8.5,15.3-19.2,28-30.1,41.4c-4.8,5.9,12,4.9,15.1,2.1c13.4-11.8,23.8-27.7,31.8-43.5
			C898.1,114.2,881.4,114.2,878.9,118.8L878.9,118.8z"/>
            <path class="st35" d="M875.9,198.5c12,0.3,24,0.9,35.9,1.6c4.3,0.3,11-1.4,12.3-6.2c1.3-4.8-4.4-7.4-8.2-7.6
			c-12-0.7-23.9-1.2-35.9-1.6c-4.3-0.1-10.9,1.3-12.3,6.2C866.4,195.7,872,198.4,875.9,198.5L875.9,198.5z"/>
	</g>
        <path class="st36" d="M660.6,486.1c0,0,2.6,14.8,2.8,22c0.1,4.4,0,11.4,0,11.4s3.3,0,5-0.2c1.7-0.1,3.7-0.5,3.7-0.5
		s-2-6.6-4.1-13.2C666,499.8,660.6,486.1,660.6,486.1z"/>
        <path class="st36" d="M545.7,485.3c0,0-3.6,10.3-5.2,16.9c-1.2,5-0.7,9.4-1,10.6c-0.4,2.1-2.5,7.9-3.5,10.6c-0.3,0.8-1.2,1.3-2,1.1
		c-1.4-0.3-3.5-0.8-5.1-1.3c-2.6-0.8-4.4-1.6-4-1.4c0,0,5.6-8,9.6-14.8C537.9,501.2,545.7,485.3,545.7,485.3z"/>
        <path class="st12" d="M662.7,621.2c22.7,45,36.6,94,44.1,143.7c8,52.6,8.7,106.1,6.2,159.2c-1.4,30.7-4,61.3-6.9,91.9
		c-0.3,3.5,5.1,3.4,5.4,0c5.2-54.9,9.3-110,7.9-165.1c-1.3-51.5-7.4-103.1-21.3-152.7c-7.7-27.4-17.9-54.2-30.7-79.7
		C665.8,615.4,661.1,618.1,662.7,621.2L662.7,621.2z"/>
        <path class="st12" d="M538.9,622.3c-19.8,45.7-30.8,94.5-36.8,143.8c-6.2,50.7-7.7,102.1-7.1,153.1c0.4,30.3,1.9,60.5,5.4,90.6
		c0.4,3.4,5.8,3.5,5.4,0c-6.1-52.6-6.4-105.7-4.5-158.6c1.7-49.3,5.9-98.8,16.9-147.1c6.1-27,14.4-53.7,25.4-79.1
		C544.9,621.9,540.3,619.1,538.9,622.3L538.9,622.3z"/>
        <path class="st20" d="M417.1,503.7h-2.3h-7.5c-0.5,0.8-1.1,1.5-1.8,2.1H417c0.6,0,1.1-0.5,1.1-1.1l0,0
		C418.2,504.2,417.7,503.7,417.1,503.7z"/>
        <path class="st20" d="M417.1,469.3c0.6,0,1.1-0.5,1.1-1.1s-0.5-1.1-1.1-1.1h-7.8v2.1L417.1,469.3L417.1,469.3z"/>
        <path class="st14" d="M403,509.6c-4.6-1-9.2-2.3-13.7-3.8H291v0.3c0,2.3,0.8,4.4,2.2,6.4h104.1C399.4,512.5,401.3,511.5,403,509.6z
		"/>
        <path class="st14" d="M786.1,509.5c1.7,1.9,3.7,3,5.8,3h109c0.5-1.3,0.8-2.6,0.7-4.1v-2.6H799.4C795,507.2,790.6,508.5,786.1,509.5
		z"/>
        <path class="st37" d="M603.1,589.4c-23.2,0-56.4-5.6-56.4-5.6s-0.5,2.6-1.1,6.1c15,4.7,35.3,7.1,57.6,6.3c21-0.8,40-4.5,54.4-9.8
		c0.2-0.1,0.3-0.2,0.5-0.3c0-0.1,0-0.2,0-0.2S627.6,589.5,603.1,589.4z"/>
</g>
</svg>
